<svg version="1.1" id="Layer_1" xmlns="http://www.w3.org/2000/svg" xmlns:xlink="http://www.w3.org/1999/xlink" x="0px" y="0px"
	 width="100%" viewBox="0 0 1098 478" enable-background="new 0 0 1098 478" xml:space="preserve">
<path fill="#FFFFFF" opacity="1.000000" stroke="none" 
	d="
M838.000000,479.000000 
	C558.666687,479.000000 279.833344,479.000000 1.000000,479.000000 
	C1.000000,319.666656 1.000000,160.333328 1.000000,1.000000 
	C367.000000,1.000000 733.000000,1.000000 1099.000000,1.000000 
	C1099.000000,160.333328 1099.000000,319.666656 1099.000000,479.000000 
	C1012.166687,479.000000 925.333313,479.000000 838.000000,479.000000 
M442.969055,381.081573 
	C442.969055,376.142395 442.969055,371.203217 442.969055,365.977264 
	C440.642670,366.102539 439.047577,366.188446 437.160461,366.290100 
	C437.160461,372.083160 437.160461,377.544678 437.041473,383.908142 
	C437.081787,386.943787 437.122101,389.979431 437.045013,393.909943 
	C437.028839,395.728394 436.976837,397.547363 437.003387,399.365204 
	C437.077820,404.463501 439.408783,407.307617 444.363800,408.404541 
	C449.864502,409.622253 451.533447,407.924896 450.295135,402.372253 
	C443.402740,401.528717 443.275085,401.368500 442.975708,392.105347 
	C442.929657,388.740021 442.883606,385.374695 442.969055,381.081573 
M459.050293,394.942627 
	C459.050293,399.186035 459.050293,403.429443 459.050293,407.675476 
	C461.225220,407.675476 462.942535,407.675476 464.802643,407.675476 
	C464.802643,402.903503 464.802643,398.462402 464.952759,393.100677 
	C465.248993,388.073181 465.545258,383.045685 466.178284,377.412048 
	C473.167206,367.889069 480.773468,367.740936 486.181366,377.851959 
	C486.529663,382.909058 486.877960,387.966156 487.096313,393.946625 
	C487.096313,398.518250 487.096313,403.089874 487.096313,407.661469 
	C489.326508,407.661469 491.035553,407.661469 492.830017,407.661469 
	C492.830017,402.550262 492.830017,397.784698 492.973419,392.091431 
	C492.907776,386.735413 492.842102,381.379364 492.813538,375.313934 
	C491.413239,370.871582 489.191711,366.752838 484.499908,365.507416 
	C477.122345,363.549133 470.463867,365.232239 465.294464,372.583191 
	C465.034119,369.729156 464.888306,368.130646 464.724609,366.335876 
	C462.834290,366.335876 461.122620,366.335876 459.160339,366.335876 
	C459.160339,370.443573 459.160339,374.230896 459.048645,378.943817 
	C459.087891,383.968811 459.127136,388.993774 459.050293,394.942627 
M365.059906,390.926880 
	C365.051697,393.424988 364.873962,395.936401 365.068481,398.418640 
	C365.558594,404.673309 369.173828,408.025635 374.819000,408.065582 
	C378.949005,408.094757 379.520630,406.165619 378.552246,402.903931 
	C371.612366,401.546875 371.069946,400.878418 370.979065,394.010559 
	C370.961456,392.680267 370.878174,391.350830 370.969482,389.090698 
	C370.923676,382.735077 370.877838,376.379456 370.972076,369.092957 
	C370.972076,361.495117 370.972076,353.897278 370.972076,345.985535 
	C368.636353,346.115479 367.047302,346.203857 365.166901,346.308472 
	C365.166901,354.776947 365.166901,362.898468 365.057709,371.948395 
	C365.097229,377.972687 365.136749,383.996979 365.059906,390.926880 
M88.818909,159.002304 
	C84.333572,163.595154 79.848244,168.188004 74.739517,172.924850 
	C67.969604,179.529190 61.199699,186.133545 53.838570,193.014786 
	C50.595886,195.044037 49.479179,197.838654 49.905994,201.715042 
	C50.351830,205.764160 50.102955,209.889755 50.029587,214.913422 
	C50.070202,221.935333 50.110817,228.957245 50.026978,236.911713 
	C50.064838,242.600708 50.102699,248.289703 50.030926,254.912857 
	C50.030926,275.169281 50.030926,295.425720 50.030926,315.687317 
	C53.029186,315.687317 55.278515,315.687317 57.859604,315.687317 
	C57.859604,294.892731 57.859604,274.435760 57.953873,253.050323 
	C57.918812,247.359940 57.883755,241.669540 57.946568,235.049454 
	C57.911827,228.026947 57.877083,221.004425 57.950977,213.054230 
	C57.969051,209.435562 58.308735,205.780960 57.909447,202.208939 
	C57.552052,199.011734 58.777958,197.127731 61.913837,195.317688 
	C64.242752,193.091904 66.592117,190.887054 68.896210,188.635864 
	C73.343987,184.290253 77.766228,179.918503 82.810707,175.210968 
	C87.328568,170.756027 91.846428,166.301071 96.958923,161.464798 
	C101.732094,156.843399 106.505264,152.222000 111.868622,147.216705 
	C113.870682,145.301147 115.872749,143.385590 117.791191,141.550034 
	C120.552208,143.959991 122.640533,145.782791 125.020607,148.154694 
	C129.629745,152.459625 134.238876,156.764557 139.139069,161.678635 
	C144.698578,166.964767 150.258102,172.250916 156.048645,178.129639 
	C163.088150,184.697327 169.153275,192.390396 178.163544,197.354187 
	C178.163544,199.339706 178.163544,201.657288 178.024399,204.907455 
	C178.066010,213.262299 178.107605,221.617157 178.019531,230.906479 
	C178.058533,238.264053 178.097519,245.621643 178.028229,253.913483 
	C178.028229,274.502991 178.028229,295.092529 178.028229,315.687347 
	C181.029114,315.687347 183.278427,315.687347 185.863342,315.687347 
	C185.863342,294.559601 185.863342,273.769440 185.956482,252.049286 
	C185.921204,244.690170 185.885925,237.331039 185.943481,229.042542 
	C185.907776,220.686615 185.872070,212.330688 185.939331,203.132660 
	C185.713730,201.042465 186.285126,198.187302 185.132736,196.986664 
	C177.843811,189.392761 170.173080,182.165359 162.392303,174.143860 
	C157.485153,169.354797 152.577988,164.565720 147.293442,159.183289 
	C142.187836,154.330826 137.082214,149.478363 131.587692,144.010559 
	C127.445557,139.255402 123.303421,134.500244 119.134880,129.714767 
	C113.146202,135.625031 108.583138,140.128342 103.482246,144.874130 
	C98.779045,149.493240 94.075844,154.112335 88.818909,159.002304 
M343.261871,386.985107 
	C343.497528,391.605988 343.486542,396.256470 344.036621,400.839600 
	C344.613068,405.642639 347.701660,407.969727 352.558624,408.040314 
	C358.186340,408.122101 358.513428,407.638214 356.090759,402.112122 
	C351.234222,402.623871 349.685089,400.029144 349.922028,395.511871 
	C350.087036,392.366577 349.854187,389.200378 349.962097,385.112183 
	C349.962097,378.842010 349.962097,372.571838 349.962097,366.358337 
	C347.340027,366.358337 345.437164,366.358337 343.425232,366.358337 
	C343.425232,373.170685 343.425232,379.627502 343.261871,386.985107 
M824.847595,373.732513 
	C823.113342,380.444397 825.393250,384.583282 832.601929,388.120270 
	C836.552979,390.058807 840.418884,392.170929 844.704590,394.953156 
	C845.472107,401.071838 843.942017,403.237366 838.103638,402.963837 
	C833.499512,402.748199 828.936279,401.661926 824.359558,400.963043 
	C823.675476,407.105133 824.255188,407.992981 830.632874,408.924988 
	C833.073730,409.281647 835.596008,409.351532 838.062439,409.214661 
	C848.233704,408.650177 852.753113,403.203735 851.540833,392.407593 
	C847.397949,389.592621 843.416870,386.489136 839.063782,384.049164 
	C835.215637,381.892273 830.475708,380.906677 831.567993,374.568848 
	C837.098328,367.472107 843.844666,371.870728 850.172363,372.757843 
	C851.316040,366.699097 850.282227,365.253174 844.635071,365.030640 
	C842.144104,364.932465 839.625488,364.806091 837.155640,365.053802 
	C831.811829,365.589813 827.135193,367.322388 824.847595,373.732513 
M639.058105,388.954468 
	C639.058105,395.186554 639.058105,401.418640 639.058105,407.660645 
	C641.274658,407.660645 642.975525,407.660645 644.731323,407.660645 
	C644.731323,400.550751 644.731323,393.796478 644.906738,386.185242 
	C646.060486,382.156860 646.230591,377.332764 648.656738,374.333710 
	C650.887878,371.575775 655.547119,370.782104 659.916016,368.762909 
	C659.909546,368.633118 659.830200,367.042572 659.757629,365.587860 
	C652.416077,363.059601 648.965271,367.980072 645.201599,373.146698 
	C644.955322,370.313171 644.777710,368.269867 644.576355,365.953369 
	C642.527161,366.093414 640.951355,366.201111 639.163086,366.323303 
	C639.163086,373.803009 639.163086,380.914581 639.058105,388.954468 
M172.946426,221.047089 
	C172.946426,214.120117 172.946426,207.193130 172.946426,200.298126 
	C169.971893,200.298126 167.715866,200.298126 165.156570,200.298126 
	C165.156570,207.728577 165.156570,214.852158 165.027740,222.908112 
	C165.065842,231.595520 165.103943,240.282944 165.025238,249.904846 
	C165.025238,271.770905 165.025238,293.636932 165.025238,315.597961 
	C167.987915,315.597961 170.339432,315.597961 172.858109,315.597961 
	C172.858109,293.103821 172.858109,271.037109 172.947739,248.041519 
	C172.913010,239.352936 172.878281,230.664368 172.946426,221.047089 
M532.526001,416.443146 
	C525.162476,426.552368 515.815735,423.037964 505.919220,420.204590 
	C506.327942,422.782379 506.703156,425.897797 508.307281,426.780914 
	C519.205566,432.780579 533.848511,428.037323 539.862122,416.513855 
	C540.398254,411.683044 540.934326,406.852203 541.717773,401.116699 
	C541.645996,395.776184 541.574219,390.435669 541.768311,384.175476 
	C541.768311,378.238037 541.768311,372.300598 541.768311,366.280548 
	C539.223633,366.280548 537.290894,366.280548 535.408936,366.280548 
	C535.086243,367.895142 534.827209,369.191010 534.666199,369.996429 
	C531.586731,368.245819 528.923767,365.672272 525.934082,365.209625 
	C510.155487,362.767975 503.362366,372.628448 503.063721,386.927551 
	C503.050262,388.584351 502.899811,390.253265 503.045471,391.895966 
	C504.025391,402.946686 510.493958,409.774231 521.549927,409.296417 
	C527.513245,409.038727 530.933411,405.117432 535.056091,402.878754 
	C534.389648,407.260101 533.723267,411.641449 532.526001,416.443146 
M63.025410,221.908615 
	C63.064240,230.929199 63.103073,239.949783 63.025108,249.904861 
	C63.025108,271.770905 63.025108,293.636963 63.025108,315.597961 
	C65.982407,315.597961 68.337448,315.597961 70.857956,315.597961 
	C70.857956,293.103790 70.857956,271.037109 70.947586,248.041519 
	C70.913940,239.019745 70.880302,229.997971 70.948669,220.047379 
	C70.948669,213.453186 70.948669,206.858978 70.948669,200.298111 
	C67.977715,200.298111 65.720657,200.298111 63.153221,200.298111 
	C63.153221,207.394974 63.153221,214.185562 63.025410,221.908615 
M739.909058,372.299103 
	C737.486389,370.002655 735.305115,366.164825 732.589355,365.739471 
	C727.377869,364.923187 721.738708,365.446960 716.511353,366.537933 
	C711.870789,367.506500 711.412720,369.565002 712.907104,374.699432 
	C719.785034,370.957062 726.691772,367.832550 733.983643,374.836212 
	C735.577393,381.206879 735.273315,381.512115 728.503479,382.039581 
	C725.433960,382.278748 722.343689,382.709320 719.356140,383.436371 
	C714.985046,384.500183 710.907349,386.182465 709.072876,391.817444 
	C707.191650,397.927063 708.544250,403.876221 712.460144,406.715881 
	C718.262878,410.923798 725.291504,409.634369 734.790955,402.457581 
	C734.937683,404.324738 735.070312,406.012207 735.201538,407.681793 
	C737.316162,407.681793 739.036438,407.681793 740.830688,407.681793 
	C740.830688,402.236847 740.830688,397.127106 740.973755,391.088623 
	C740.613953,385.063629 740.254150,379.038666 739.909058,372.299103 
M384.203491,393.761566 
	C387.770477,406.041748 393.239868,410.587616 404.180328,408.864471 
	C408.354675,408.207001 412.157623,405.191681 415.988373,403.320007 
	C416.056427,404.311707 416.167847,405.935913 416.291260,407.734680 
	C418.546631,407.734680 420.589111,407.734680 422.803680,407.734680 
	C422.803680,402.608490 422.803680,397.814636 422.952393,392.098846 
	C422.907318,387.739166 422.862274,383.379517 422.959503,378.089935 
	C422.911560,370.734344 422.863617,363.378723 422.955505,355.112762 
	C422.955505,352.184937 422.955505,349.257080 422.955505,346.342377 
	C420.339722,346.342377 418.431824,346.342377 416.313171,346.342377 
	C416.313171,349.464691 416.313171,352.251678 416.164795,355.952911 
	C416.164795,360.474487 416.164795,364.996094 416.164795,370.281677 
	C405.554626,360.718445 389.501160,364.799500 385.864899,376.731659 
	C385.322052,382.160950 384.779205,387.590271 384.203491,393.761566 
M621.768921,358.365784 
	C610.034729,345.758850 594.818909,349.810944 580.228210,349.003143 
	C580.228210,356.165070 580.228210,362.600403 580.107239,369.960754 
	C580.151672,376.649994 580.196106,383.339203 580.108704,390.952271 
	C580.108704,396.526917 580.108704,402.101593 580.108704,408.036591 
	C587.383850,408.036591 594.148804,408.339905 600.877014,407.971283 
	C613.546997,407.277161 623.026550,399.400909 626.940857,386.240906 
	C628.976624,376.495911 628.531738,367.197388 621.768921,358.365784 
M696.965637,372.282990 
	C689.618286,361.644897 674.890015,362.022339 666.923706,373.655487 
	C663.490295,379.749603 661.861450,386.102875 664.074829,393.792511 
	C665.045471,401.764435 669.472717,407.296783 677.215698,408.594696 
	C682.233154,409.435791 687.684570,408.273499 692.851685,407.446777 
	C696.855774,406.806152 698.039551,404.055054 696.394470,400.210571 
	C681.683105,406.053986 673.885925,403.591797 670.084839,391.141785 
	C671.404236,390.431030 672.710815,389.133881 674.045044,389.104858 
	C682.622742,388.918365 691.206421,389.009552 701.277832,389.009552 
	C699.678467,382.920807 698.371765,377.946564 696.965637,372.282990 
M323.258636,385.963776 
	C323.201263,388.287842 323.256714,390.621307 323.064423,392.934174 
	C322.577637,398.787811 318.069366,402.978699 312.271698,403.098816 
	C305.723633,403.234436 302.845337,400.703461 301.838531,393.897552 
	C301.547882,391.932953 301.303619,389.961487 301.191132,387.066956 
	C301.191132,379.973907 301.191132,372.880859 301.191132,365.448090 
	C298.762451,365.829620 297.050262,366.098572 295.172607,366.393524 
	C295.172607,374.111084 295.172607,381.566467 295.061676,389.908234 
	C294.888916,404.247467 299.808258,410.107330 311.907135,408.835144 
	C315.665100,408.439941 319.185059,405.780792 322.927246,404.107452 
	C323.059692,404.905548 323.304901,406.383118 323.520905,407.684875 
	C325.832123,407.684875 327.732758,407.684875 329.750824,407.684875 
	C329.750824,399.913269 329.750824,392.480682 329.926453,384.118103 
	C329.926453,378.188629 329.926453,372.259186 329.926453,366.369507 
	C327.340149,366.369507 325.440979,366.369507 323.424103,366.369507 
	C323.424103,372.845428 323.424103,378.961426 323.258636,385.963776 
M249.057205,365.951752 
	C249.093445,373.976685 249.129700,382.001587 249.057220,390.953827 
	C249.057220,396.513031 249.057220,402.072235 249.057220,408.021912 
	C255.437759,408.021912 261.362762,407.935883 267.284363,408.041595 
	C276.679932,408.209290 286.151978,401.129120 284.819824,388.319702 
	C283.378693,382.057861 279.139374,378.666504 272.444244,377.234283 
	C277.341339,373.523285 281.735687,370.216492 281.921478,363.220520 
	C281.735931,357.041992 278.245758,351.160492 273.003082,350.382782 
	C265.251434,349.232849 257.347717,349.107788 249.164124,348.521698 
	C249.164124,354.790314 249.164124,359.906738 249.057205,365.951752 
M808.055786,386.958252 
	C808.055786,393.859283 808.055786,400.760315 808.055786,407.668884 
	C810.286560,407.668884 811.994324,407.668884 813.834045,407.668884 
	C813.834045,400.554260 813.834045,393.791138 813.982727,386.108307 
	C813.989014,383.445770 814.053711,380.781891 813.990784,378.120972 
	C813.788513,369.565002 809.097290,365.245300 800.567993,364.923889 
	C794.140564,364.681671 789.859314,367.632629 786.524353,373.063995 
	C783.379700,368.575256 780.424561,364.782257 774.243347,364.831177 
	C768.598755,364.875824 764.748047,367.378784 761.245117,371.726837 
	C760.966980,369.486664 760.769775,367.898315 760.577515,366.350037 
	C758.304749,366.350037 756.405212,366.350037 754.314270,366.350037 
	C754.314270,372.812408 754.314270,378.930908 754.174316,385.970306 
	C754.174316,393.235718 754.174316,400.501129 754.174316,407.720001 
	C756.689819,407.720001 758.610657,407.720001 760.712830,407.720001 
	C760.712830,399.959351 760.712830,392.503326 760.895203,384.212769 
	C760.948608,382.888214 760.852478,381.537231 761.080933,380.243591 
	C762.182861,374.004578 766.482178,370.449432 772.388916,370.784851 
	C777.504639,371.075287 780.690735,375.078857 780.973694,381.562988 
	C781.024170,382.719543 781.098694,383.875031 781.059631,385.959015 
	C781.059631,393.236176 781.059631,400.513336 781.059631,407.720520 
	C783.574402,407.720520 785.509644,407.720520 786.836792,407.720520 
	C786.836792,399.952423 786.836792,392.491852 786.988159,384.250946 
	C787.524658,382.184113 787.887573,380.052338 788.631653,378.063141 
	C790.551575,372.930542 794.544189,370.423737 799.734253,370.807037 
	C804.938843,371.191345 806.580383,374.749695 807.244995,379.174164 
	C807.587402,381.453735 807.855591,383.744446 808.055786,386.958252 
M946.379944,200.924072 
	C950.577209,202.865158 955.071411,204.348221 958.912720,206.838379 
	C968.190918,212.852951 974.792053,221.551422 980.420471,230.837814 
	C997.054993,258.283630 1013.395203,285.907654 1029.926147,313.416565 
	C1030.774536,314.828247 1032.306519,316.818695 1033.556763,316.845642 
	C1045.613525,317.105225 1057.677856,317.001221 1069.667358,317.001221 
	C1069.750366,316.303619 1069.840210,316.105774 1069.776489,316.004059 
	C1048.592529,282.167267 1027.486938,248.280838 1006.141724,214.545959 
	C1000.769775,206.055923 993.999512,198.662247 985.336975,193.271408 
	C982.865784,191.733582 980.291016,190.362122 977.101624,188.535019 
	C979.469788,187.812225 981.014099,187.347336 982.554504,186.869812 
	C1016.066528,176.480774 1035.683716,153.577240 1038.490234,119.885292 
	C1041.226807,87.033440 1026.878296,59.861446 995.708984,47.194206 
	C983.061035,42.054070 969.712280,40.117809 956.147095,40.039478 
	C929.648438,39.886456 903.148254,39.989838 876.648743,40.007351 
	C875.229797,40.008293 873.811035,40.196262 872.458313,40.292461 
	C872.458313,132.684204 872.458313,224.620804 872.458313,316.674469 
	C883.221130,316.674469 893.755554,316.674469 904.585815,316.674469 
	C904.585815,277.395447 904.585815,238.445953 904.585815,198.264908 
	C918.491882,199.083923 932.042664,199.882019 946.379944,200.924072 
M552.289917,80.772705 
	C526.913635,110.420166 501.537323,140.067612 475.593231,170.378403 
	C475.593231,126.554977 475.593231,83.496338 475.593231,40.311153 
	C464.603394,40.311153 454.062256,40.311153 443.544006,40.311153 
	C443.544006,132.675995 443.544006,224.722260 443.544006,316.775635 
	C454.292847,316.775635 464.726593,316.775635 475.819489,316.775635 
	C475.819489,271.430420 475.819489,226.312500 475.819489,180.325256 
	C479.531311,184.898438 482.492554,188.667252 485.578796,192.330795 
	C517.128723,229.782166 549.007446,266.963654 580.038452,304.839813 
	C587.451843,313.888550 594.699158,318.708405 606.658752,317.234253 
	C615.898621,316.095306 625.391235,317.007019 635.660339,317.007019 
	C592.954102,268.498810 550.951538,220.789856 508.782501,172.891876 
	C548.245728,128.654358 587.501343,84.649551 627.338379,39.993008 
	C614.092285,39.993008 601.945251,39.893032 589.803833,40.110912 
	C588.160034,40.140408 586.122803,41.397198 584.982056,42.707588 
	C574.155457,55.144676 563.483459,67.716339 552.289917,80.772705 
M374.495789,317.005035 
	C379.577911,317.005035 384.660034,317.005035 389.619476,317.005035 
	C389.619476,306.957245 389.619476,297.684296 389.619476,287.907318 
	C351.497650,287.907318 313.602295,287.907318 275.727356,287.907318 
	C275.727356,255.099335 275.727356,222.799362 275.727356,190.024033 
	C308.948700,190.024033 342.020630,190.024033 375.215210,190.024033 
	C375.215210,180.112366 375.215210,170.678177 375.215210,160.813904 
	C341.880493,160.813904 308.792542,160.813904 275.735229,160.813904 
	C275.735229,130.084152 275.735229,99.786911 275.735229,69.039551 
	C311.641479,69.039551 347.390015,69.039551 383.322784,69.039551 
	C383.322784,59.168434 383.322784,49.749073 383.322784,40.364437 
	C336.527039,40.364437 289.983093,40.364437 243.447052,40.364437 
	C243.447052,132.665604 243.447052,224.597092 243.447052,317.005035 
	C286.938416,317.005035 330.218018,317.005035 374.495789,317.005035 
M818.849609,309.414673 
	C818.849609,302.322083 818.849609,295.229462 818.849609,287.830566 
	C780.370544,287.830566 742.584045,287.830566 704.877502,287.830566 
	C704.877502,255.106934 704.877502,222.711411 704.877502,189.997803 
	C738.126160,189.997803 771.072876,189.997803 804.240784,189.997803 
	C804.240784,180.243362 804.240784,170.809097 804.240784,160.932953 
	C770.952576,160.932953 737.864075,160.932953 704.887756,160.932953 
	C704.887756,130.094620 704.887756,99.698784 704.887756,68.796692 
	C740.911377,68.796692 776.623413,68.796692 812.361450,68.796692 
	C812.361450,59.006176 812.361450,49.726273 812.361450,40.311157 
	C765.608948,40.311157 719.069214,40.311157 672.564453,40.311157 
	C672.564453,132.688461 672.564453,224.749115 672.564453,316.666016 
	C721.471924,316.666016 770.047913,316.666016 818.849609,316.666016 
	C818.849609,314.352051 818.849609,312.371033 818.849609,309.414673 
M70.999702,146.482880 
	C70.999702,111.726562 70.999702,76.970238 70.999702,42.292610 
	C63.679344,42.292610 56.939484,42.292610 50.290054,42.292610 
	C50.290054,80.986000 50.290054,119.386406 50.290054,157.706360 
	C57.322796,157.706360 64.062706,157.706360 70.999702,157.706360 
	C70.999702,154.102097 70.999702,150.789474 70.999702,146.482880 
M185.999710,110.500000 
	C185.999710,87.740295 185.999710,64.980591 185.999710,42.288197 
	C178.688278,42.288197 171.948822,42.288197 165.284714,42.288197 
	C165.284714,80.976509 165.284714,119.376259 165.284714,157.711853 
	C172.311630,157.711853 179.051071,157.711853 185.999710,157.711853 
	C185.999710,142.116638 185.999710,126.808319 185.999710,110.500000 
M106.499992,383.818878 
	C141.956879,383.818878 177.413757,383.822083 212.870636,383.815948 
	C219.513199,383.814789 219.651535,383.618958 218.418365,376.222137 
	C216.877701,376.151184 215.257065,376.011658 213.636414,376.011322 
	C158.037369,376.000031 102.438324,376.007843 46.839291,375.985413 
	C43.908707,375.984222 41.204468,375.590698 41.218266,380.059601 
	C41.233059,384.853851 44.436459,383.792480 47.071095,383.797760 
	C66.547325,383.836731 86.023674,383.818665 106.499992,383.818878 
M887.727722,387.962097 
	C945.319519,387.962097 1002.911316,387.962097 1060.604004,387.962097 
	C1060.604004,385.068176 1060.604004,382.710205 1060.604004,380.349121 
	C1001.627625,380.349121 943.059509,380.349121 884.023438,380.349121 
	C884.914001,383.191559 881.509277,386.935059 887.727722,387.962097 
M442.640533,345.559235 
	C441.844879,345.372253 440.842957,344.788422 440.292969,345.074188 
	C438.766876,345.867249 436.246460,347.038177 436.259766,348.031128 
	C436.288544,350.179596 437.653442,352.310120 438.471863,354.448029 
	C440.318787,353.730774 443.107758,353.487793 443.769287,352.173767 
	C444.559662,350.603729 443.529877,348.117340 442.640533,345.559235 
M347.466919,354.085022 
	C350.957581,353.782776 351.692780,351.199219 350.792511,348.734833 
	C350.219238,347.165619 347.842499,345.183350 346.417969,345.290710 
	C344.916779,345.403809 342.209229,348.169922 342.468231,349.090668 
	C343.005371,351.000305 345.157562,352.455658 347.466919,354.085022 
z"/>
<path fill="#030303" opacity="1.000000" stroke="none" 
	d="
M945.986694,200.802094 
	C932.042664,199.882019 918.491882,199.083923 904.585815,198.264908 
	C904.585815,238.445953 904.585815,277.395447 904.585815,316.674469 
	C893.755554,316.674469 883.221130,316.674469 872.458313,316.674469 
	C872.458313,224.620804 872.458313,132.684204 872.458313,40.292461 
	C873.811035,40.196262 875.229797,40.008293 876.648743,40.007351 
	C903.148254,39.989838 929.648438,39.886456 956.147095,40.039478 
	C969.712280,40.117809 983.061035,42.054070 995.708984,47.194206 
	C1026.878296,59.861446 1041.226807,87.033440 1038.490234,119.885292 
	C1035.683716,153.577240 1016.066528,176.480774 982.554504,186.869812 
	C981.014099,187.347336 979.469788,187.812225 977.101624,188.535019 
	C980.291016,190.362122 982.865784,191.733582 985.336975,193.271408 
	C993.999512,198.662247 1000.769775,206.055923 1006.141724,214.545959 
	C1027.486938,248.280838 1048.592529,282.167267 1069.776489,316.004059 
	C1069.840210,316.105774 1069.750366,316.303619 1069.667358,317.001221 
	C1057.677856,317.001221 1045.613525,317.105225 1033.556763,316.845642 
	C1032.306519,316.818695 1030.774536,314.828247 1029.926147,313.416565 
	C1013.395203,285.907654 997.054993,258.283630 980.420471,230.837814 
	C974.792053,221.551422 968.190918,212.852951 958.912720,206.838379 
	C955.071411,204.348221 950.577209,202.865158 945.986694,200.802094 
M986.962585,157.510468 
	C987.588196,156.960358 988.242920,156.439713 988.835327,155.855865 
	C1004.796265,140.126846 1008.551819,120.942719 1002.571594,100.225235 
	C996.964661,80.801056 981.619873,71.930054 962.538391,70.120560 
	C948.327026,68.772903 933.936279,69.295273 919.624451,69.039093 
	C914.667297,68.950363 909.707275,69.024971 904.890625,69.024971 
	C904.890625,102.961739 904.890625,136.354340 904.890625,169.849442 
	C921.852844,169.849442 938.513550,170.296127 955.136414,169.695816 
	C966.631409,169.280670 977.243530,165.240097 986.962585,157.510468 
z"/>
<path fill="#040404" opacity="1.000000" stroke="none" 
	d="
M552.528442,80.510986 
	C563.483459,67.716339 574.155457,55.144676 584.982056,42.707588 
	C586.122803,41.397198 588.160034,40.140408 589.803833,40.110912 
	C601.945251,39.893032 614.092285,39.993008 627.338379,39.993008 
	C587.501343,84.649551 548.245728,128.654358 508.782501,172.891876 
	C550.951538,220.789856 592.954102,268.498810 635.660339,317.007019 
	C625.391235,317.007019 615.898621,316.095306 606.658752,317.234253 
	C594.699158,318.708405 587.451843,313.888550 580.038452,304.839813 
	C549.007446,266.963654 517.128723,229.782166 485.578796,192.330795 
	C482.492554,188.667252 479.531311,184.898438 475.819489,180.325256 
	C475.819489,226.312500 475.819489,271.430420 475.819489,316.775635 
	C464.726593,316.775635 454.292847,316.775635 443.544006,316.775635 
	C443.544006,224.722260 443.544006,132.675995 443.544006,40.311153 
	C454.062256,40.311153 464.603394,40.311153 475.593231,40.311153 
	C475.593231,83.496338 475.593231,126.554977 475.593231,170.378403 
	C501.537323,140.067612 526.913635,110.420166 552.528442,80.510986 
z"/>
<path fill="#030303" opacity="1.000000" stroke="none" 
	d="
M373.996704,317.005035 
	C330.218018,317.005035 286.938416,317.005035 243.447052,317.005035 
	C243.447052,224.597092 243.447052,132.665604 243.447052,40.364437 
	C289.983093,40.364437 336.527039,40.364437 383.322784,40.364437 
	C383.322784,49.749073 383.322784,59.168434 383.322784,69.039551 
	C347.390015,69.039551 311.641479,69.039551 275.735229,69.039551 
	C275.735229,99.786911 275.735229,130.084152 275.735229,160.813904 
	C308.792542,160.813904 341.880493,160.813904 375.215210,160.813904 
	C375.215210,170.678177 375.215210,180.112366 375.215210,190.024033 
	C342.020630,190.024033 308.948700,190.024033 275.727356,190.024033 
	C275.727356,222.799362 275.727356,255.099335 275.727356,287.907318 
	C313.602295,287.907318 351.497650,287.907318 389.619476,287.907318 
	C389.619476,297.684296 389.619476,306.957245 389.619476,317.005035 
	C384.660034,317.005035 379.577911,317.005035 373.996704,317.005035 
z"/>
<path fill="#030303" opacity="1.000000" stroke="none" 
	d="
M818.849609,309.902344 
	C818.849609,312.371033 818.849609,314.352051 818.849609,316.666016 
	C770.047913,316.666016 721.471924,316.666016 672.564453,316.666016 
	C672.564453,224.749115 672.564453,132.688461 672.564453,40.311157 
	C719.069214,40.311157 765.608948,40.311157 812.361450,40.311157 
	C812.361450,49.726273 812.361450,59.006176 812.361450,68.796692 
	C776.623413,68.796692 740.911377,68.796692 704.887756,68.796692 
	C704.887756,99.698784 704.887756,130.094620 704.887756,160.932953 
	C737.864075,160.932953 770.952576,160.932953 804.240784,160.932953 
	C804.240784,170.809097 804.240784,180.243362 804.240784,189.997803 
	C771.072876,189.997803 738.126160,189.997803 704.877502,189.997803 
	C704.877502,222.711411 704.877502,255.106934 704.877502,287.830566 
	C742.584045,287.830566 780.370544,287.830566 818.849609,287.830566 
	C818.849609,295.229462 818.849609,302.322083 818.849609,309.902344 
z"/>
<path fill="#010101" opacity="1.000000" stroke="none" 
	d="
M70.999702,146.979874 
	C70.999702,150.789474 70.999702,154.102097 70.999702,157.706360 
	C64.062706,157.706360 57.322796,157.706360 50.290054,157.706360 
	C50.290054,119.386406 50.290054,80.986000 50.290054,42.292610 
	C56.939484,42.292610 63.679344,42.292610 70.999702,42.292610 
	C70.999702,76.970238 70.999702,111.726562 70.999702,146.979874 
z"/>
<path fill="#010101" opacity="1.000000" stroke="none" 
	d="
M185.999710,111.000000 
	C185.999710,126.808319 185.999710,142.116638 185.999710,157.711853 
	C179.051071,157.711853 172.311630,157.711853 165.284714,157.711853 
	C165.284714,119.376259 165.284714,80.976509 165.284714,42.288197 
	C171.948822,42.288197 178.688278,42.288197 185.999710,42.288197 
	C185.999710,64.980591 185.999710,87.740295 185.999710,111.000000 
z"/>
<path fill="#FED95A" opacity="1.000000" stroke="none" 
	d="
M105.999985,383.818726 
	C86.023674,383.818665 66.547325,383.836731 47.071095,383.797760 
	C44.436459,383.792480 41.233059,384.853851 41.218266,380.059601 
	C41.204468,375.590698 43.908707,375.984222 46.839291,375.985413 
	C102.438324,376.007843 158.037369,376.000031 213.636414,376.011322 
	C215.257065,376.011658 216.877701,376.151184 218.418365,376.222137 
	C219.651535,383.618958 219.513199,383.814789 212.870636,383.815948 
	C177.413757,383.822083 141.956879,383.818878 105.999985,383.818726 
z"/>
<path fill="#FED852" opacity="1.000000" stroke="none" 
	d="
M887.255493,387.960876 
	C881.509277,386.935059 884.914001,383.191559 884.023438,380.349121 
	C943.059509,380.349121 1001.627625,380.349121 1060.604004,380.349121 
	C1060.604004,382.710205 1060.604004,385.068176 1060.604004,387.962097 
	C1002.911316,387.962097 945.319519,387.962097 887.255493,387.960876 
z"/>
<path fill="#FED95B" opacity="1.000000" stroke="none" 
	d="
M781.162109,385.031006 
	C781.098694,383.875031 781.024170,382.719543 780.973694,381.562988 
	C780.690735,375.078857 777.504639,371.075287 772.388916,370.784851 
	C766.482178,370.449432 762.182861,374.004578 761.080933,380.243591 
	C760.852478,381.537231 760.948608,382.888214 760.404663,384.619446 
	C758.047546,385.033905 756.180908,385.041656 754.314270,385.049408 
	C754.314270,378.930908 754.314270,372.812408 754.314270,366.350037 
	C756.405212,366.350037 758.304749,366.350037 760.577515,366.350037 
	C760.769775,367.898315 760.966980,369.486664 761.245117,371.726837 
	C764.748047,367.378784 768.598755,364.875824 774.243347,364.831177 
	C780.424561,364.782257 783.379700,368.575256 786.524353,373.063995 
	C789.859314,367.632629 794.140564,364.681671 800.567993,364.923889 
	C809.097290,365.245300 813.788513,369.565002 813.990784,378.120972 
	C814.053711,380.781891 813.989014,383.445770 813.551025,386.509979 
	C811.465271,386.617798 809.811279,386.323975 808.157288,386.030121 
	C807.855591,383.744446 807.587402,381.453735 807.244995,379.174164 
	C806.580383,374.749695 804.938843,371.191345 799.734253,370.807037 
	C794.544189,370.423737 790.551575,372.930542 788.631653,378.063141 
	C787.887573,380.052338 787.524658,382.184113 786.507690,384.630707 
	C784.405518,385.017334 782.783813,385.024170 781.162109,385.031006 
z"/>
<path fill="#FEE58F" opacity="1.000000" stroke="none" 
	d="
M172.858109,248.970428 
	C172.858109,271.037109 172.858109,293.103821 172.858109,315.597961 
	C170.339432,315.597961 167.987915,315.597961 165.025238,315.597961 
	C165.025238,293.636932 165.025238,271.770905 165.510315,249.447693 
	C168.282959,248.983856 170.570541,248.977142 172.858109,248.970428 
z"/>
<path fill="#FEE58F" opacity="1.000000" stroke="none" 
	d="
M70.857956,248.970413 
	C70.857956,271.037109 70.857956,293.103790 70.857956,315.597961 
	C68.337448,315.597961 65.982407,315.597961 63.025108,315.597961 
	C63.025108,293.636963 63.025108,271.770905 63.510193,249.447708 
	C66.282837,248.983841 68.570396,248.977127 70.857956,248.970413 
z"/>
<path fill="#FEE590" opacity="1.000000" stroke="none" 
	d="
M185.863342,252.979248 
	C185.863342,273.769440 185.863342,294.559601 185.863342,315.687347 
	C183.278427,315.687347 181.029114,315.687347 178.028229,315.687347 
	C178.028229,295.092529 178.028229,274.502991 178.509659,253.453598 
	C181.281845,252.988892 183.572586,252.984070 185.863342,252.979248 
z"/>
<path fill="#FEE590" opacity="1.000000" stroke="none" 
	d="
M57.859604,253.978775 
	C57.859604,274.435760 57.859604,294.892731 57.859604,315.687317 
	C55.278515,315.687317 53.029186,315.687317 50.030926,315.687317 
	C50.030926,295.425720 50.030926,275.169281 50.512535,254.452942 
	C53.282631,253.988281 55.571117,253.983536 57.859604,253.978775 
z"/>
<path fill="#FED854" opacity="1.000000" stroke="none" 
	d="
M281.764099,364.032104 
	C281.735687,370.216492 277.341339,373.523285 272.444244,377.234283 
	C279.139374,378.666504 283.378693,382.057861 284.400452,388.672852 
	C282.042572,389.358917 280.104034,389.691833 278.077026,389.671356 
	C275.472717,380.954071 267.937439,379.666779 254.826935,381.772247 
	C254.826935,384.462158 254.826935,387.244141 254.421906,390.018250 
	C252.399902,390.015778 250.782913,390.021149 249.165939,390.026520 
	C249.129700,382.001587 249.093445,373.976685 249.475922,365.480469 
	C251.541306,365.346466 253.188004,365.683716 254.888275,366.462524 
	C255.620285,369.570953 255.549606,373.925659 257.105225,374.616089 
	C264.324493,377.820282 273.323151,372.660095 275.559021,365.007996 
	C277.877228,364.673004 279.820679,364.352570 281.764099,364.032104 
z"/>
<path fill="#FFD13C" opacity="1.000000" stroke="none" 
	d="
M626.678345,387.060059 
	C623.026550,399.400909 613.546997,407.277161 600.877014,407.971283 
	C594.148804,408.339905 587.383850,408.036591 580.108704,408.036591 
	C580.108704,402.101593 580.108704,396.526917 580.632690,390.483063 
	C583.005554,389.967010 584.854309,389.920197 586.750610,390.283752 
	C586.798157,394.309723 586.798157,397.925323 586.798157,401.411133 
	C604.565796,404.247894 614.256714,399.855072 619.845093,387.029419 
	C622.391907,387.035614 624.535095,387.047852 626.678345,387.060059 
z"/>
<path fill="#FFD13C" opacity="1.000000" stroke="none" 
	d="
M541.502441,385.095154 
	C541.574219,390.435669 541.645996,395.776184 541.200806,401.566345 
	C538.803345,402.006714 536.922852,401.997467 535.042419,401.988190 
	C530.933411,405.117432 527.513245,409.038727 521.549927,409.296417 
	C510.493958,409.774231 504.025391,402.946686 503.045471,391.895966 
	C502.899811,390.253265 503.050262,388.584351 503.480469,386.468994 
	C505.796844,385.686920 507.696442,385.363434 509.659912,385.482819 
	C509.781036,387.757599 509.757416,389.596252 509.910004,391.420166 
	C510.451233,397.890167 514.546204,402.494537 520.169678,403.043060 
	C527.608765,403.768677 532.279480,400.571381 534.012939,393.307251 
	C534.656799,390.609009 534.832275,387.799011 535.620300,385.029785 
	C537.847046,385.044800 539.674805,385.069977 541.502441,385.095154 
z"/>
<path fill="#FFD13C" opacity="1.000000" stroke="none" 
	d="
M301.038147,387.993164 
	C301.303619,389.961487 301.547882,391.932953 301.838531,393.897552 
	C302.845337,400.703461 305.723633,403.234436 312.271698,403.098816 
	C318.069366,402.978699 322.577637,398.787811 323.064423,392.934174 
	C323.256714,390.621307 323.201263,388.287842 323.731842,385.501892 
	C326.053650,385.042664 327.902222,385.045349 329.750824,385.048065 
	C329.750824,392.480682 329.750824,399.913269 329.750824,407.684875 
	C327.732758,407.684875 325.832123,407.684875 323.520905,407.684875 
	C323.304901,406.383118 323.059692,404.905548 322.927246,404.107452 
	C319.185059,405.780792 315.665100,408.439941 311.907135,408.835144 
	C299.808258,410.107330 294.888916,404.247467 295.483551,389.406860 
	C297.616333,388.601379 299.327240,388.297272 301.038147,387.993164 
z"/>
<path fill="#FEDA5D" opacity="1.000000" stroke="none" 
	d="
M541.635376,384.635315 
	C539.674805,385.069977 537.847046,385.044800 535.536926,384.621582 
	C534.507141,374.511322 528.993958,369.649567 520.003357,370.950836 
	C514.591125,371.734131 511.045715,376.533813 509.596039,385.039978 
	C507.696442,385.363434 505.796844,385.686920 503.529053,386.023010 
	C503.362366,372.628448 510.155487,362.767975 525.934082,365.209625 
	C528.923767,365.672272 531.586731,368.245819 534.666199,369.996429 
	C534.827209,369.191010 535.086243,367.895142 535.408936,366.280548 
	C537.290894,366.280548 539.223633,366.280548 541.768311,366.280548 
	C541.768311,372.300598 541.768311,378.238037 541.635376,384.635315 
z"/>
<path fill="#FED64E" opacity="1.000000" stroke="none" 
	d="
M664.143311,393.017700 
	C661.861450,386.102875 663.490295,379.749603 667.514526,373.338318 
	C669.743896,373.699280 671.382568,374.377411 672.893555,375.387390 
	C671.873474,377.926117 670.980957,380.133026 669.958252,382.661743 
	C678.067810,382.661743 685.399902,382.661743 693.272400,382.661743 
	C692.785583,379.854614 692.372192,377.471191 692.036682,374.710236 
	C693.764771,373.879242 695.414917,373.425781 697.065125,372.972290 
	C698.371765,377.946564 699.678467,382.920807 701.277832,389.009552 
	C691.206421,389.009552 682.622742,388.918365 674.045044,389.104858 
	C672.710815,389.133881 671.404236,390.431030 669.666199,391.571198 
	C667.546143,392.339630 665.844727,392.678650 664.143311,393.017700 
z"/>
<path fill="#FED95B" opacity="1.000000" stroke="none" 
	d="
M422.815674,356.023132 
	C422.863617,363.378723 422.911560,370.734344 422.538239,378.543335 
	C420.108826,379.000519 418.100647,379.004242 415.899963,378.721375 
	C412.037537,369.073792 398.259705,367.066376 391.891388,377.877380 
	C389.864990,377.059418 388.040588,376.541809 386.216217,376.024200 
	C389.501160,364.799500 405.554626,360.718445 416.164795,370.281677 
	C416.164795,364.996094 416.164795,360.474487 416.601196,355.496307 
	C418.963654,355.367523 420.889648,355.695312 422.815674,356.023132 
z"/>
<path fill="#FDDB67" opacity="1.000000" stroke="none" 
	d="
M580.228210,369.035706 
	C580.228210,362.600403 580.228210,356.165070 580.228210,349.003143 
	C594.818909,349.810944 610.034729,345.758850 621.525513,358.721252 
	C619.514038,360.071869 617.745911,361.067047 615.669006,361.912537 
	C607.264771,354.216644 597.417175,354.764526 586.760681,355.266571 
	C586.760681,360.156036 586.760681,364.594696 586.350403,369.025024 
	C584.036133,369.023041 582.132202,369.029358 580.228210,369.035706 
z"/>
<path fill="#FFD13A" opacity="1.000000" stroke="none" 
	d="
M422.803680,393.020782 
	C422.803680,397.814636 422.803680,402.608490 422.803680,407.734680 
	C420.589111,407.734680 418.546631,407.734680 416.291260,407.734680 
	C416.167847,405.935913 416.056427,404.311707 415.988373,403.320007 
	C412.157623,405.191681 408.354675,408.207001 404.180328,408.864471 
	C393.239868,410.587616 387.770477,406.041748 384.581757,393.330750 
	C386.914825,392.605469 388.869659,392.311066 390.896332,392.380371 
	C393.816071,401.715393 399.407196,403.678925 405.094452,403.085571 
	C411.329865,402.435089 414.029724,398.078735 416.581909,393.010986 
	C418.933319,393.010742 420.868500,393.015778 422.803680,393.020782 
z"/>
<path fill="#FFD13A" opacity="1.000000" stroke="none" 
	d="
M278.165527,390.024719 
	C280.104034,389.691833 282.042572,389.358917 284.351410,389.032257 
	C286.151978,401.129120 276.679932,408.209290 267.284363,408.041595 
	C261.362762,407.935883 255.437759,408.021912 249.057220,408.021912 
	C249.057220,402.072235 249.057220,396.513031 249.111572,390.490173 
	C250.782913,390.021149 252.399902,390.015778 254.476562,390.477173 
	C254.936234,394.513031 254.936234,398.082123 254.936234,402.081848 
	C258.871033,402.081848 262.130280,402.093994 265.389435,402.079498 
	C273.918762,402.041595 277.658020,398.508118 278.165527,390.024719 
z"/>
<path fill="#FFD13C" opacity="1.000000" stroke="none" 
	d="
M740.830688,392.017334 
	C740.830688,397.127106 740.830688,402.236847 740.830688,407.681793 
	C739.036438,407.681793 737.316162,407.681793 735.201538,407.681793 
	C735.070312,406.012207 734.937683,404.324738 734.790955,402.457581 
	C725.291504,409.634369 718.262878,410.923798 712.460144,406.715881 
	C708.544250,403.876221 707.191650,397.927063 709.596436,391.420349 
	C711.785156,391.420868 713.450317,391.818451 715.076294,392.628998 
	C713.592651,402.192383 719.362732,404.286316 726.361572,402.789337 
	C732.341003,401.510406 734.225708,396.445557 735.535278,391.012970 
	C737.545715,391.344360 739.188232,391.680847 740.830688,392.017334 
z"/>
<path fill="#FDDB67" opacity="1.000000" stroke="none" 
	d="
M281.842773,363.626312 
	C279.820679,364.352570 277.877228,364.673004 275.492279,364.617859 
	C274.050262,356.616241 270.379761,354.457916 258.902863,355.022736 
	C251.706451,355.376923 256.279846,361.013489 255.033127,364.045959 
	C254.792038,364.632355 254.892044,365.358978 254.834702,366.020935 
	C253.188004,365.683716 251.541306,365.346466 249.529373,365.016174 
	C249.164124,359.906738 249.164124,354.790314 249.164124,348.521698 
	C257.347717,349.107788 265.251434,349.232849 273.003082,350.382782 
	C278.245758,351.160492 281.735931,357.041992 281.842773,363.626312 
z"/>
<path fill="#FED958" opacity="1.000000" stroke="none" 
	d="
M162.628357,174.816986 
	C170.173080,182.165359 177.843811,189.392761 185.132736,196.986664 
	C186.285126,198.187302 185.713730,201.042465 185.462860,203.561554 
	C182.712112,203.985245 180.437820,203.980072 178.163544,203.974884 
	C178.163544,201.657288 178.163544,199.339706 178.163544,197.354187 
	C169.153275,192.390396 163.088150,184.697327 156.138245,177.463486 
	C158.361343,176.137222 160.494858,175.477097 162.628357,174.816986 
z"/>
<path fill="#FED95B" opacity="1.000000" stroke="none" 
	d="
M459.160339,378.018188 
	C459.160339,374.230896 459.160339,370.443573 459.160339,366.335876 
	C461.122620,366.335876 462.834290,366.335876 464.724609,366.335876 
	C464.888306,368.130646 465.034119,369.729156 465.294464,372.583191 
	C470.463867,365.232239 477.122345,363.549133 484.499908,365.507416 
	C489.191711,366.752838 491.413239,370.871582 492.425049,375.671967 
	C490.094055,376.360657 488.151581,376.691284 486.209106,377.021912 
	C480.773468,367.740936 473.167206,367.889069 465.592896,377.709167 
	C463.058472,378.010254 461.109406,378.014221 459.160339,378.018188 
z"/>
<path fill="#FFD038" opacity="1.000000" stroke="none" 
	d="
M664.109070,393.405090 
	C665.844727,392.678650 667.546143,392.339630 669.629150,391.999390 
	C673.885925,403.591797 681.683105,406.053986 696.394470,400.210571 
	C698.039551,404.055054 696.855774,406.806152 692.851685,407.446777 
	C687.684570,408.273499 682.233154,409.435791 677.215698,408.594696 
	C669.472717,407.296783 665.045471,401.764435 664.109070,393.405090 
z"/>
<path fill="#FED64E" opacity="1.000000" stroke="none" 
	d="
M740.902222,391.552979 
	C739.188232,391.680847 737.545715,391.344360 735.464905,390.588348 
	C734.359131,388.788208 733.491882,386.147217 733.054382,386.216553 
	C726.768127,387.213135 719.768433,386.342957 715.115479,392.216003 
	C713.450317,391.818451 711.785156,391.420868 709.730042,391.033508 
	C710.907349,386.182465 714.985046,384.500183 719.356140,383.436371 
	C722.343689,382.709320 725.433960,382.278748 728.503479,382.039581 
	C735.273315,381.512115 735.577393,381.206879 734.285461,374.291290 
	C736.356323,373.502136 738.125366,373.257904 739.894409,373.013672 
	C740.254150,379.038666 740.613953,385.063629 740.902222,391.552979 
z"/>
<path fill="#FBDE7A" opacity="1.000000" stroke="none" 
	d="
M70.902771,248.505966 
	C68.570396,248.977127 66.282837,248.983841 63.568588,248.980469 
	C63.103073,239.949783 63.064240,230.929199 63.515205,221.450378 
	C66.285553,220.986816 68.566101,220.981506 70.846657,220.976196 
	C70.880302,229.997971 70.913940,239.019745 70.902771,248.505966 
z"/>
<path fill="#FFC813" opacity="1.000000" stroke="none" 
	d="
M539.415405,417.108765 
	C533.848511,428.037323 519.205566,432.780579 508.307281,426.780914 
	C506.703156,425.897797 506.327942,422.782379 505.919220,420.204590 
	C515.815735,423.037964 525.162476,426.552368 533.198853,416.228546 
	C535.719604,416.378876 537.567505,416.743835 539.415405,417.108765 
z"/>
<path fill="#FED852" opacity="1.000000" stroke="none" 
	d="
M82.199059,175.557587 
	C77.766228,179.918503 73.343987,184.290253 68.896210,188.635864 
	C66.592117,190.887054 64.242752,193.091904 61.406166,195.117218 
	C58.742260,194.190460 56.586025,193.464172 54.429790,192.737885 
	C61.199699,186.133545 67.969604,179.529190 75.464325,173.006775 
	C78.192436,173.911667 80.195747,174.734634 82.199059,175.557587 
z"/>
<path fill="#FFD038" opacity="1.000000" stroke="none" 
	d="
M851.627930,393.055542 
	C852.753113,403.203735 848.233704,408.650177 838.062439,409.214661 
	C835.596008,409.351532 833.073730,409.281647 830.632874,408.924988 
	C824.255188,407.992981 823.675476,407.105133 824.359558,400.963043 
	C828.936279,401.661926 833.499512,402.748199 838.103638,402.963837 
	C843.942017,403.237366 845.472107,401.071838 844.946655,394.508850 
	C847.335144,393.728210 849.481506,393.391876 851.627930,393.055542 
z"/>
<path fill="#FBDE7A" opacity="1.000000" stroke="none" 
	d="
M172.902924,248.505981 
	C170.570541,248.977142 168.282959,248.983856 165.568726,248.980453 
	C165.103943,240.282944 165.065842,231.595520 165.517639,222.449753 
	C168.286224,221.986191 170.564880,221.980988 172.843552,221.975784 
	C172.878281,230.664368 172.913010,239.352936 172.902924,248.505981 
z"/>
<path fill="#FED95A" opacity="1.000000" stroke="none" 
	d="
M615.977783,362.062225 
	C617.745911,361.067047 619.514038,360.071869 621.658997,359.032349 
	C628.531738,367.197388 628.976624,376.495911 626.809570,386.650482 
	C624.535095,387.047852 622.391907,387.035614 619.907837,386.646240 
	C621.284302,377.768097 620.818787,369.590759 615.977783,362.062225 
z"/>
<path fill="#FFC918" opacity="1.000000" stroke="none" 
	d="
M124.728867,147.605591 
	C122.640533,145.782791 120.552208,143.959991 117.791191,141.550034 
	C115.872749,143.385590 113.870682,145.301147 111.347351,147.030151 
	C108.557404,146.106277 106.288734,145.368958 104.020065,144.631653 
	C108.583138,140.128342 113.146202,135.625031 119.134880,129.714767 
	C123.303421,134.500244 127.445557,139.255402 131.334900,144.475143 
	C128.964371,145.828354 126.846619,146.716965 124.728867,147.605591 
z"/>
<path fill="#FED958" opacity="1.000000" stroke="none" 
	d="
M639.163086,388.026123 
	C639.163086,380.914581 639.163086,373.803009 639.163086,366.323303 
	C640.951355,366.201111 642.527161,366.093414 644.576355,365.953369 
	C644.777710,368.269867 644.955322,370.313171 645.201599,373.146698 
	C648.965271,367.980072 652.416077,363.059601 659.757629,365.587860 
	C659.830200,367.042572 659.909546,368.633118 659.916016,368.762909 
	C655.547119,370.782104 650.887878,371.575775 648.656738,374.333710 
	C646.230591,377.332764 646.060486,382.156860 644.460327,386.606018 
	C642.396973,387.359894 640.780029,387.693024 639.163086,388.026123 
z"/>
<path fill="#FED64E" opacity="1.000000" stroke="none" 
	d="
M851.584351,392.731567 
	C849.481506,393.391876 847.335144,393.728210 844.755981,394.134674 
	C840.418884,392.170929 836.552979,390.058807 832.601929,388.120270 
	C825.393250,384.583282 823.113342,380.444397 825.381042,373.369904 
	C827.609253,373.670654 829.304077,374.333984 830.998840,374.997345 
	C830.475708,380.906677 835.215637,381.892273 839.063782,384.049164 
	C843.416870,386.489136 847.397949,389.592621 851.584351,392.731567 
z"/>
<path fill="#FCDB6C" opacity="1.000000" stroke="none" 
	d="
M178.093964,204.441162 
	C180.437820,203.980072 182.712112,203.985245 185.411377,203.982605 
	C185.872070,212.330688 185.907776,220.686615 185.470886,229.516876 
	C182.715271,229.984802 180.432251,229.978409 178.149216,229.972015 
	C178.107605,221.617157 178.066010,213.262299 178.093964,204.441162 
z"/>
<path fill="#FCE081" opacity="1.000000" stroke="none" 
	d="
M178.084381,230.439240 
	C180.432251,229.978409 182.715271,229.984802 185.424469,229.981567 
	C185.885925,237.331039 185.921204,244.690170 185.909912,252.514267 
	C183.572586,252.984070 181.281845,252.988892 178.563797,252.986465 
	C178.097519,245.621643 178.058533,238.264053 178.084381,230.439240 
z"/>
<path fill="#FFD13C" opacity="1.000000" stroke="none" 
	d="
M349.799072,386.043518 
	C349.854187,389.200378 350.087036,392.366577 349.922028,395.511871 
	C349.685089,400.029144 351.234222,402.623871 356.090759,402.112122 
	C358.513428,407.638214 358.186340,408.122101 352.558624,408.040314 
	C347.701660,407.969727 344.613068,405.642639 344.036621,400.839600 
	C343.486542,396.256470 343.497528,391.605988 343.736023,386.513000 
	C346.073151,386.041748 347.936096,386.042633 349.799072,386.043518 
z"/>
<path fill="#FBDC72" opacity="1.000000" stroke="none" 
	d="
M57.842339,213.981918 
	C57.877083,221.004425 57.911827,228.026947 57.471748,235.521240 
	C54.715096,235.988403 52.433266,235.983780 50.151432,235.979156 
	C50.110817,228.957245 50.070202,221.935333 50.519196,214.453491 
	C53.286648,213.989685 55.564491,213.985809 57.842339,213.981918 
z"/>
<path fill="#FDDB67" opacity="1.000000" stroke="none" 
	d="
M172.894989,221.511444 
	C170.564880,221.980988 168.286224,221.986191 165.582062,221.983566 
	C165.156570,214.852158 165.156570,207.728577 165.156570,200.298126 
	C167.715866,200.298126 169.971893,200.298126 172.946426,200.298126 
	C172.946426,207.193130 172.946426,214.120117 172.894989,221.511444 
z"/>
<path fill="#FDDA5E" opacity="1.000000" stroke="none" 
	d="
M739.901733,372.656372 
	C738.125366,373.257904 736.356323,373.502136 734.228638,373.897339 
	C726.691772,367.832550 719.785034,370.957062 712.907104,374.699432 
	C711.412720,369.565002 711.870789,367.506500 716.511353,366.537933 
	C721.738708,365.446960 727.377869,364.923187 732.589355,365.739471 
	C735.305115,366.164825 737.486389,370.002655 739.901733,372.656372 
z"/>
<path fill="#FFCD2D" opacity="1.000000" stroke="none" 
	d="
M124.874741,147.880127 
	C126.846619,146.716965 128.964371,145.828354 131.529358,144.782822 
	C137.082214,149.478363 142.187836,154.330826 147.026672,159.561462 
	C144.122589,160.316254 141.485306,160.692871 138.848007,161.069504 
	C134.238876,156.764557 129.629745,152.459625 124.874741,147.880127 
z"/>
<path fill="#FDDA5E" opacity="1.000000" stroke="none" 
	d="
M673.021179,375.055542 
	C671.382568,374.377411 669.743896,373.699280 667.719604,373.031738 
	C674.890015,362.022339 689.618286,361.644897 697.015381,372.627625 
	C695.414917,373.425781 693.764771,373.879242 691.723999,374.545715 
	C685.322083,369.088745 680.121948,369.173065 673.021179,375.055542 
z"/>
<path fill="#FDDA63" opacity="1.000000" stroke="none" 
	d="
M57.896660,213.518066 
	C55.564491,213.985809 53.286648,213.989685 50.583290,213.987747 
	C50.102955,209.889755 50.351830,205.764160 49.905994,201.715042 
	C49.479179,197.838654 50.595886,195.044037 54.134178,192.876343 
	C56.586025,193.464172 58.742260,194.190460 61.110050,195.304428 
	C58.777958,197.127731 57.552052,199.011734 57.909447,202.208939 
	C58.308735,205.780960 57.969051,209.435562 57.896660,213.518066 
z"/>
<path fill="#FDDB67" opacity="1.000000" stroke="none" 
	d="
M70.897659,220.511780 
	C68.566101,220.981506 66.285553,220.986816 63.579109,220.984146 
	C63.153221,214.185562 63.153221,207.394974 63.153221,200.298111 
	C65.720657,200.298111 67.977715,200.298111 70.948669,200.298111 
	C70.948669,206.858978 70.948669,213.453186 70.897659,220.511780 
z"/>
<path fill="#FFCD2D" opacity="1.000000" stroke="none" 
	d="
M103.751152,144.752884 
	C106.288734,145.368958 108.557404,146.106277 111.052254,147.222107 
	C106.505264,152.222000 101.732094,156.843399 96.461670,161.249802 
	C93.767159,160.267014 91.569893,159.499222 89.372635,158.731430 
	C94.075844,154.112335 98.779045,149.493240 103.751152,144.752884 
z"/>
<path fill="#FFD340" opacity="1.000000" stroke="none" 
	d="
M138.993530,161.374069 
	C141.485306,160.692871 144.122589,160.316254 147.215363,159.858139 
	C152.577988,164.565720 157.485153,169.354797 162.510330,174.480423 
	C160.494858,175.477097 158.361343,176.137222 156.022736,177.167191 
	C150.258102,172.250916 144.698578,166.964767 138.993530,161.374069 
z"/>
<path fill="#FFD23E" opacity="1.000000" stroke="none" 
	d="
M754.244263,385.509857 
	C756.180908,385.041656 758.047546,385.033905 760.313477,385.036713 
	C760.712830,392.503326 760.712830,399.959351 760.712830,407.720001 
	C758.610657,407.720001 756.689819,407.720001 754.174316,407.720001 
	C754.174316,400.501129 754.174316,393.235718 754.244263,385.509857 
z"/>
<path fill="#FDDA5E" opacity="1.000000" stroke="none" 
	d="
M831.283447,374.783081 
	C829.304077,374.333984 827.609253,373.670654 825.538208,373.014038 
	C827.135193,367.322388 831.811829,365.589813 837.155640,365.053802 
	C839.625488,364.806091 842.144104,364.932465 844.635071,365.030640 
	C850.282227,365.253174 851.316040,366.699097 850.172363,372.757843 
	C843.844666,371.870728 837.098328,367.472107 831.283447,374.783081 
z"/>
<path fill="#FFD340" opacity="1.000000" stroke="none" 
	d="
M89.095772,158.866867 
	C91.569893,159.499222 93.767159,160.267014 96.164352,161.440460 
	C91.846428,166.301071 87.328568,170.756027 82.504883,175.384277 
	C80.195747,174.734634 78.192436,173.911667 75.776024,172.934784 
	C79.848244,168.188004 84.333572,163.595154 89.095772,158.866867 
z"/>
<path fill="#FED64E" opacity="1.000000" stroke="none" 
	d="
M580.167725,369.498230 
	C582.132202,369.029358 584.036133,369.023041 586.412292,369.487488 
	C586.823975,376.596649 586.763550,383.234985 586.703125,389.873352 
	C584.854309,389.920197 583.005554,389.967010 580.698669,390.021149 
	C580.196106,383.339203 580.151672,376.649994 580.167725,369.498230 
z"/>
<path fill="#FDDA63" opacity="1.000000" stroke="none" 
	d="
M365.166901,371.019989 
	C365.166901,362.898468 365.166901,354.776947 365.166901,346.308472 
	C367.047302,346.203857 368.636353,346.115479 370.972076,345.985535 
	C370.972076,353.897278 370.972076,361.495117 370.535706,369.551697 
	C368.455170,370.346954 366.811035,370.683472 365.166901,371.019989 
z"/>
<path fill="#FCE081" opacity="1.000000" stroke="none" 
	d="
M50.089203,236.445435 
	C52.433266,235.983780 54.715096,235.988403 57.422813,235.986084 
	C57.883755,241.669540 57.918812,247.359940 57.906738,253.514557 
	C55.571117,253.983536 53.282631,253.988281 50.567352,253.985870 
	C50.102699,248.289703 50.064838,242.600708 50.089203,236.445435 
z"/>
<path fill="#FEDA5D" opacity="1.000000" stroke="none" 
	d="
M349.880585,385.577850 
	C347.936096,386.042633 346.073151,386.041748 343.817688,386.062622 
	C343.425232,379.627502 343.425232,373.170685 343.425232,366.358337 
	C345.437164,366.358337 347.340027,366.358337 349.962097,366.358337 
	C349.962097,372.571838 349.962097,378.842010 349.880585,385.577850 
z"/>
<path fill="#FFD23E" opacity="1.000000" stroke="none" 
	d="
M781.110840,385.494995 
	C782.783813,385.024170 784.405518,385.017334 786.432007,385.020874 
	C786.836792,392.491852 786.836792,399.952423 786.836792,407.720520 
	C785.509644,407.720520 783.574402,407.720520 781.059631,407.720520 
	C781.059631,400.513336 781.059631,393.236176 781.110840,385.494995 
z"/>
<path fill="#FFD13C" opacity="1.000000" stroke="none" 
	d="
M370.825195,390.020996 
	C370.878174,391.350830 370.961456,392.680267 370.979065,394.010559 
	C371.069946,400.878418 371.612366,401.546875 378.552246,402.903931 
	C379.520630,406.165619 378.949005,408.094757 374.819000,408.065582 
	C369.173828,408.025635 365.558594,404.673309 365.068481,398.418640 
	C364.873962,395.936401 365.051697,393.424988 365.521118,390.468140 
	C367.596619,390.013275 369.210907,390.017120 370.825195,390.020996 
z"/>
<path fill="#FFD13C" opacity="1.000000" stroke="none" 
	d="
M442.838745,393.014954 
	C443.275085,401.368500 443.402740,401.528717 450.295135,402.372253 
	C451.533447,407.924896 449.864502,409.622253 444.363800,408.404541 
	C439.408783,407.307617 437.077820,404.463501 437.003387,399.365204 
	C436.976837,397.547363 437.028839,395.728394 437.508759,393.457336 
	C439.594574,393.008148 441.216675,393.011536 442.838745,393.014954 
z"/>
<path fill="#FED852" opacity="1.000000" stroke="none" 
	d="
M301.114624,387.530060 
	C299.327240,388.297272 297.616333,388.601379 295.539001,388.963684 
	C295.172607,381.566467 295.172607,374.111084 295.172607,366.393524 
	C297.050262,366.098572 298.762451,365.829620 301.191132,365.448090 
	C301.191132,372.880859 301.191132,379.973907 301.114624,387.530060 
z"/>
<path fill="#FED95A" opacity="1.000000" stroke="none" 
	d="
M329.838623,384.583069 
	C327.902222,385.045349 326.053650,385.042664 323.814575,385.058685 
	C323.424103,378.961426 323.424103,372.845428 323.424103,366.369507 
	C325.440979,366.369507 327.340149,366.369507 329.926453,366.369507 
	C329.926453,372.259186 329.926453,378.188629 329.838623,384.583069 
z"/>
<path fill="#FFD23E" opacity="1.000000" stroke="none" 
	d="
M808.106567,386.494202 
	C809.811279,386.323975 811.465271,386.617798 813.476685,386.969849 
	C813.834045,393.791138 813.834045,400.554260 813.834045,407.668884 
	C811.994324,407.668884 810.286560,407.668884 808.055786,407.668884 
	C808.055786,400.760315 808.055786,393.859283 808.106567,386.494202 
z"/>
<path fill="#FFD13C" opacity="1.000000" stroke="none" 
	d="
M639.110596,388.490295 
	C640.780029,387.693024 642.396973,387.359894 644.372620,387.034485 
	C644.731323,393.796478 644.731323,400.550751 644.731323,407.660645 
	C642.975525,407.660645 641.274658,407.660645 639.058105,407.660645 
	C639.058105,401.418640 639.058105,395.186554 639.110596,388.490295 
z"/>
<path fill="#FED64E" opacity="1.000000" stroke="none" 
	d="
M370.897339,389.555847 
	C369.210907,390.017120 367.596619,390.013275 365.579285,390.015350 
	C365.136749,383.996979 365.097229,377.972687 365.112305,371.484192 
	C366.811035,370.683472 368.455170,370.346954 370.465668,370.017151 
	C370.877838,376.379456 370.923676,382.735077 370.897339,389.555847 
z"/>
<path fill="#FED54A" opacity="1.000000" stroke="none" 
	d="
M390.824463,392.016663 
	C388.869659,392.311066 386.914825,392.605469 384.598206,392.959717 
	C384.779205,387.590271 385.322052,382.160950 386.040558,376.377930 
	C388.040588,376.541809 389.864990,377.059418 391.851410,378.283447 
	C391.617126,383.332123 391.220795,387.674408 390.824463,392.016663 
z"/>
<path fill="#FED54A" opacity="1.000000" stroke="none" 
	d="
M486.195251,377.436951 
	C488.151581,376.691284 490.094055,376.360657 492.406494,376.026672 
	C492.842102,381.379364 492.907776,386.735413 492.501373,392.549683 
	C490.428314,393.013031 488.827271,393.018127 487.226257,393.023254 
	C486.877960,387.966156 486.529663,382.909058 486.195251,377.436951 
z"/>
<path fill="#FED54A" opacity="1.000000" stroke="none" 
	d="
M422.878052,392.559814 
	C420.868500,393.015778 418.933319,393.010742 416.519928,392.548767 
	C416.058655,387.730530 416.075592,383.369263 416.092529,379.007996 
	C418.100647,379.004242 420.108826,379.000519 422.467102,379.008301 
	C422.862274,383.379517 422.907318,387.739166 422.878052,392.559814 
z"/>
<path fill="#FED54A" opacity="1.000000" stroke="none" 
	d="
M459.104492,378.481018 
	C461.109406,378.014221 463.058472,378.010254 465.424500,378.012238 
	C465.545258,383.045685 465.248993,388.073181 464.475830,393.555420 
	C462.388031,394.013062 460.777222,394.015930 459.166382,394.018768 
	C459.127136,388.993774 459.087891,383.968811 459.104492,378.481018 
z"/>
<path fill="#FED854" opacity="1.000000" stroke="none" 
	d="
M437.160461,383.006165 
	C437.160461,377.544678 437.160461,372.083160 437.160461,366.290100 
	C439.047577,366.188446 440.642670,366.102539 442.969055,365.977264 
	C442.969055,371.203217 442.969055,376.142395 442.536072,381.542847 
	C440.455566,382.338135 438.808014,382.672150 437.160461,383.006165 
z"/>
<path fill="#FFCD2D" opacity="1.000000" stroke="none" 
	d="
M539.638794,416.811310 
	C537.567505,416.743835 535.719604,416.378876 533.464294,416.018372 
	C533.723267,411.641449 534.389648,407.260101 535.049255,402.433472 
	C536.922852,401.997467 538.803345,402.006714 541.077087,402.018677 
	C540.934326,406.852203 540.398254,411.683044 539.638794,416.811310 
z"/>
<path fill="#FFD038" opacity="1.000000" stroke="none" 
	d="
M487.161285,393.484924 
	C488.827271,393.018127 490.428314,393.013031 492.429688,393.013519 
	C492.830017,397.784698 492.830017,402.550262 492.830017,407.661469 
	C491.035553,407.661469 489.326508,407.661469 487.096313,407.661469 
	C487.096313,403.089874 487.096313,398.518250 487.161285,393.484924 
z"/>
<path fill="#FFD038" opacity="1.000000" stroke="none" 
	d="
M459.108337,394.480713 
	C460.777222,394.015930 462.388031,394.013062 464.400757,394.015747 
	C464.802643,398.462402 464.802643,402.903503 464.802643,407.675476 
	C462.942535,407.675476 461.225220,407.675476 459.050293,407.675476 
	C459.050293,403.429443 459.050293,399.186035 459.108337,394.480713 
z"/>
<path fill="#FBDC72" opacity="1.000000" stroke="none" 
	d="
M442.964539,345.793549 
	C443.529877,348.117340 444.559662,350.603729 443.769287,352.173767 
	C443.107758,353.487793 440.318787,353.730774 438.471863,354.447998 
	C437.653442,352.310120 436.288544,350.179596 436.259766,348.031128 
	C436.246460,347.038177 438.766876,345.867249 440.292969,345.074188 
	C440.842957,344.788422 441.844879,345.372253 442.964539,345.793549 
z"/>
<path fill="#FBDC72" opacity="1.000000" stroke="none" 
	d="
M347.056335,354.091400 
	C345.157562,352.455658 343.005371,351.000305 342.468231,349.090668 
	C342.209229,348.169922 344.916779,345.403809 346.417969,345.290710 
	C347.842499,345.183350 350.219238,347.165619 350.792511,348.734833 
	C351.692780,351.199219 350.957581,353.782776 347.056335,354.091400 
z"/>
<path fill="#FCDB6C" opacity="1.000000" stroke="none" 
	d="
M422.885590,355.567932 
	C420.889648,355.695312 418.963654,355.367523 416.675415,355.039185 
	C416.313171,352.251678 416.313171,349.464691 416.313171,346.342377 
	C418.431824,346.342377 420.339722,346.342377 422.955505,346.342377 
	C422.955505,349.257080 422.955505,352.184937 422.885590,355.567932 
z"/>
<path fill="#FED54A" opacity="1.000000" stroke="none" 
	d="
M437.100952,383.457153 
	C438.808014,382.672150 440.455566,382.338135 442.470337,382.006744 
	C442.883606,385.374695 442.929657,388.740021 442.907227,392.560120 
	C441.216675,393.011536 439.594574,393.008148 437.567444,393.009918 
	C437.122101,389.979431 437.081787,386.943787 437.100952,383.457153 
z"/>
<path fill="#FEFEFE" opacity="1.000000" stroke="none" 
	d="
M986.676941,157.725952 
	C977.243530,165.240097 966.631409,169.280670 955.136414,169.695816 
	C938.513550,170.296127 921.852844,169.849442 904.890625,169.849442 
	C904.890625,136.354340 904.890625,102.961739 904.890625,69.024971 
	C909.707275,69.024971 914.667297,68.950363 919.624451,69.039093 
	C933.936279,69.295273 948.327026,68.772903 962.538391,70.120560 
	C981.619873,71.930054 996.964661,80.801056 1002.571594,100.225235 
	C1008.551819,120.942719 1004.796265,140.126846 988.835327,155.855865 
	C988.242920,156.439713 987.588196,156.960358 986.676941,157.725952 
z"/>
<path fill="#FFFFFF" opacity="1.000000" stroke="none" 
	d="
M278.077026,389.671356 
	C277.658020,398.508118 273.918762,402.041595 265.389435,402.079498 
	C262.130280,402.093994 258.871033,402.081848 254.936234,402.081848 
	C254.936234,398.082123 254.936234,394.513031 254.881592,390.485016 
	C254.826935,387.244141 254.826935,384.462158 254.826935,381.772247 
	C267.937439,379.666779 275.472717,380.954071 278.077026,389.671356 
z"/>
<path fill="#FFFFFE" opacity="1.000000" stroke="none" 
	d="
M254.888275,366.462524 
	C254.892044,365.358978 254.792038,364.632355 255.033127,364.045959 
	C256.279846,361.013489 251.706451,355.376923 258.902863,355.022736 
	C270.379761,354.457916 274.050262,356.616241 275.117493,364.632385 
	C273.323151,372.660095 264.324493,377.820282 257.105225,374.616089 
	C255.549606,373.925659 255.620285,369.570953 254.888275,366.462524 
z"/>
<path fill="#FFFFFF" opacity="1.000000" stroke="none" 
	d="
M586.750610,390.283752 
	C586.763550,383.234985 586.823975,376.596649 586.822571,369.495819 
	C586.760681,364.594696 586.760681,360.156036 586.760681,355.266571 
	C597.417175,354.764526 607.264771,354.216644 615.669006,361.912537 
	C620.818787,369.590759 621.284302,377.768097 619.504272,386.652283 
	C614.256714,399.855072 604.565796,404.247894 586.798157,401.411133 
	C586.798157,397.925323 586.798157,394.309723 586.750610,390.283752 
z"/>
<path fill="#FFFFFE" opacity="1.000000" stroke="none" 
	d="
M509.659912,385.482849 
	C511.045715,376.533813 514.591125,371.734131 520.003357,370.950836 
	C528.993958,369.649567 534.507141,374.511322 535.137878,384.631775 
	C534.832275,387.799011 534.656799,390.609009 534.012939,393.307251 
	C532.279480,400.571381 527.608765,403.768677 520.169678,403.043060 
	C514.546204,402.494537 510.451233,397.890167 509.910004,391.420166 
	C509.757416,389.596252 509.781036,387.757599 509.659912,385.482849 
z"/>
<path fill="#FFFFFE" opacity="1.000000" stroke="none" 
	d="
M672.893555,375.387390 
	C680.121948,369.173065 685.322083,369.088745 691.646118,374.923218 
	C692.372192,377.471191 692.785583,379.854614 693.272400,382.661743 
	C685.399902,382.661743 678.067810,382.661743 669.958252,382.661743 
	C670.980957,380.133026 671.873474,377.926117 672.893555,375.387390 
z"/>
<path fill="#FFFFFE" opacity="1.000000" stroke="none" 
	d="
M415.899963,378.721344 
	C416.075592,383.369263 416.058655,387.730530 416.103699,392.554016 
	C414.029724,398.078735 411.329865,402.435089 405.094452,403.085571 
	C399.407196,403.678925 393.816071,401.715393 390.896332,392.380371 
	C391.220795,387.674408 391.617126,383.332123 392.053436,378.583801 
	C398.259705,367.066376 412.037537,369.073792 415.899963,378.721344 
z"/>
<path fill="#FFFFFE" opacity="1.000000" stroke="none" 
	d="
M715.076294,392.628998 
	C719.768433,386.342957 726.768127,387.213135 733.054382,386.216553 
	C733.491882,386.147217 734.359131,388.788208 735.096924,390.593414 
	C734.225708,396.445557 732.341003,401.510406 726.361572,402.789337 
	C719.362732,404.286316 713.592651,402.192383 715.076294,392.628998 
z"/>
</svg>