<svg version="1.1" id="Layer_1" xmlns="http://www.w3.org/2000/svg" xmlns:xlink="http://www.w3.org/1999/xlink" x="0px" y="0px"
	 width="100%" viewBox="0 0 1098 478" enable-background="new 0 0 1098 478" xml:space="preserve">
<path fill="#FFFFFF" opacity="1.000000" stroke="none" 
	d="
M776.000000,479.000000 
	C517.333313,479.000000 259.166656,479.000000 1.000000,479.000000 
	C1.000000,319.666656 1.000000,160.333328 1.000000,1.000000 
	C367.000000,1.000000 733.000000,1.000000 1099.000000,1.000000 
	C1099.000000,160.333328 1099.000000,319.666656 1099.000000,479.000000 
	C991.500000,479.000000 884.000000,479.000000 776.000000,479.000000 
M464.963989,394.097321 
	C465.032379,389.415741 465.100769,384.734161 465.702026,379.605804 
	C467.880127,373.443390 471.050049,370.930145 476.483276,370.585693 
	C482.670258,370.193481 485.055725,374.219666 486.955627,379.975067 
	C487.041687,384.659058 487.127716,389.343048 487.090485,394.948151 
	C487.090485,399.186737 487.090485,403.425323 487.090485,407.663361 
	C489.334747,407.663361 491.038727,407.663361 492.841309,407.663361 
	C492.841309,402.886383 492.841309,398.454071 492.984467,393.095123 
	C492.938446,388.067657 492.892426,383.040161 492.968842,377.241028 
	C492.438660,372.103088 490.198517,367.722809 485.324341,365.949615 
	C477.661652,363.162018 470.760498,364.924622 465.289398,372.555939 
	C465.032990,369.731018 464.888031,368.134216 464.724884,366.336609 
	C462.835663,366.336609 461.125854,366.336609 459.149048,366.336609 
	C459.149048,371.107330 459.149048,375.559906 459.036407,380.934753 
	C459.077576,385.297089 459.118713,389.659393 459.048492,394.945648 
	C459.048492,399.188110 459.048492,403.430542 459.048492,407.677551 
	C461.224304,407.677551 462.941803,407.677551 464.813080,407.677551 
	C464.813080,403.239441 464.813080,399.130157 464.963989,394.097321 
M437.036194,382.906342 
	C437.078094,385.944092 437.119965,388.981812 437.048370,392.927307 
	C437.031525,395.073792 436.981567,397.220642 437.004486,399.366699 
	C437.058899,404.458710 439.365082,407.279724 444.331512,408.392883 
	C449.865692,409.633270 451.493805,408.007690 450.335083,402.398560 
	C443.871735,401.524445 443.201141,400.845154 442.989044,394.983856 
	C442.953278,393.995209 442.889923,393.007538 442.979584,391.117371 
	C442.933899,388.079681 442.888245,385.042023 442.968811,381.076569 
	C442.968811,376.139069 442.968811,371.201538 442.968811,365.978577 
	C440.640228,366.104340 439.046356,366.190430 437.158508,366.292419 
	C437.158508,371.750366 437.158508,376.877350 437.036194,382.906342 
M365.058472,370.954620 
	C365.100769,376.643829 365.143097,382.333038 365.066437,388.939056 
	C365.054962,392.078186 364.858459,395.229889 365.071106,398.353760 
	C365.494324,404.570801 369.064667,407.937927 374.629059,408.068420 
	C378.553772,408.160461 379.692627,406.517395 378.628052,402.952148 
	C371.248047,401.302734 371.033600,401.010345 370.975006,392.970856 
	C370.962982,391.320984 370.871155,389.671661 370.963501,387.092834 
	C370.922302,381.404388 370.881134,375.715973 370.980530,369.096191 
	C370.980530,361.493652 370.980530,353.891144 370.980530,345.975616 
	C368.635651,346.106415 367.044769,346.195160 365.162842,346.300140 
	C365.162842,354.440796 365.162842,362.234283 365.058472,370.954620 
M755.881226,408.001160 
	C757.464844,407.922180 759.048462,407.843201 760.718323,407.759949 
	C760.718323,400.571350 760.718323,393.807861 760.897156,386.177704 
	C760.924011,384.691010 760.895447,383.200897 760.987244,381.718231 
	C761.375854,375.444427 765.858093,370.753174 771.410706,370.764008 
	C777.137085,370.775177 780.639771,374.736237 780.969971,381.580597 
	C781.041504,383.063141 781.097229,384.546448 781.056824,386.957458 
	C781.056824,393.901855 781.056824,400.846252 781.056824,407.720947 
	C783.574585,407.720947 785.510010,407.720947 786.838684,407.720947 
	C786.838684,400.285553 786.838684,393.157593 786.984192,385.230774 
	C787.663086,382.525238 788.032288,379.691528 789.087463,377.141663 
	C791.086365,372.311188 795.079407,370.218384 800.250732,370.865204 
	C804.826965,371.437592 806.580139,374.593903 807.129089,378.696899 
	C807.543823,381.797333 807.815613,384.916901 808.049255,388.956207 
	C808.049255,395.192780 808.049255,401.429352 808.049255,407.670074 
	C810.295044,407.670074 811.998840,407.670074 813.841187,407.670074 
	C813.841187,401.221527 813.841187,395.123749 813.987305,388.100128 
	C813.989502,384.606873 814.092896,381.110138 813.973389,377.621063 
	C813.700500,369.654816 808.914368,365.435150 801.075256,364.887238 
	C794.304504,364.414062 789.963501,367.699829 786.210876,373.073700 
	C783.340698,368.068756 780.233215,364.840240 774.279785,364.839325 
	C768.615906,364.838501 764.558472,366.958405 761.276428,372.160217 
	C760.955017,369.483856 760.764343,367.895874 760.579224,366.354065 
	C758.292969,366.354065 756.398926,366.354065 754.307739,366.354065 
	C754.307739,373.481781 754.307739,380.264130 754.167603,387.967377 
	C754.173157,394.310822 754.178772,400.654266 754.151306,407.500244 
	C754.435303,407.629242 754.719299,407.758240 755.881226,408.001160 
M57.947006,235.049820 
	C57.913017,228.694977 57.879032,222.340134 57.952946,215.056122 
	C57.971996,211.593567 58.225231,208.112228 57.949181,204.673355 
	C57.624310,200.626282 58.021175,197.112045 62.659214,194.733795 
	C69.750313,187.815323 76.841408,180.896851 84.550133,173.688782 
	C88.747223,169.480255 92.944313,165.271729 97.740768,160.782364 
	C102.796761,155.841827 107.852760,150.901291 113.513634,145.622879 
	C114.940765,144.257248 116.367897,142.891632 117.760437,141.559097 
	C120.078819,143.530289 121.904648,145.082703 124.018234,147.183243 
	C129.560455,152.392532 135.102692,157.601822 140.930984,163.340469 
	C145.321060,167.547913 149.711121,171.755356 154.341858,176.576355 
	C162.098877,183.508453 168.228485,192.308884 178.163788,197.268723 
	C178.163788,200.041138 178.163788,203.009445 178.026886,206.910172 
	C178.069290,215.263840 178.111710,223.617493 178.022751,232.905426 
	C178.061172,239.597000 178.099594,246.288559 178.029434,253.914230 
	C178.029434,274.503357 178.029434,295.092499 178.029434,315.686707 
	C181.029083,315.686707 183.278381,315.686707 185.861862,315.686707 
	C185.861862,294.559662 185.861862,273.769897 185.956375,252.050293 
	C185.919495,245.357224 185.882614,238.664154 185.940140,231.041977 
	C185.905472,222.687210 185.870789,214.332443 185.942047,205.098618 
	C185.716400,202.351746 186.558395,198.622314 185.086212,197.022659 
	C177.401886,188.673065 169.129562,180.864609 160.737747,172.288147 
	C156.458740,168.198700 152.179749,164.109253 147.626831,159.420471 
	C141.781204,153.885300 135.935593,148.350113 129.722031,142.244766 
	C126.241562,138.137360 122.761086,134.029968 118.956894,129.540527 
	C113.762245,134.825790 109.836250,138.820267 105.275436,143.045715 
	C100.198212,148.066071 95.120995,153.086426 89.426399,158.342575 
	C84.745522,163.187454 80.064644,168.032333 74.743698,172.946732 
	C67.617493,179.898849 60.491283,186.850967 52.743668,194.060791 
	C51.805588,195.638397 50.136051,197.182236 50.061394,198.799698 
	C49.797615,204.514618 50.079849,210.254745 50.028187,216.917328 
	C50.069138,223.271286 50.110088,229.625229 50.026543,236.911743 
	C50.065048,242.601044 50.103554,248.290344 50.032104,254.913635 
	C50.032104,275.169678 50.032104,295.425720 50.032104,315.686676 
	C53.029156,315.686676 55.278481,315.686676 57.858116,315.686676 
	C57.858116,294.892853 57.858116,274.436249 57.953793,253.051178 
	C57.918896,247.360519 57.883995,241.669846 57.947006,235.049820 
M343.256714,388.974945 
	C343.509491,393.096191 343.437134,397.270752 344.101929,401.324432 
	C344.839783,405.823639 347.926727,407.996948 352.554535,408.045044 
	C358.180817,408.103485 358.508759,407.637726 356.091095,402.113800 
	C351.237152,402.625397 349.650360,400.034760 349.926422,395.516022 
	C350.077881,393.036682 349.858795,390.534698 349.968170,387.111206 
	C349.968170,380.175140 349.968170,373.239105 349.968170,366.357727 
	C347.348877,366.357727 345.443329,366.357727 343.416595,366.357727 
	C343.416595,373.837128 343.416595,380.960693 343.256714,388.974945 
M531.914795,417.630005 
	C524.237427,426.033386 515.316162,423.003906 505.825165,420.293732 
	C506.319427,422.951233 506.834686,425.981445 508.480103,426.836273 
	C519.279968,432.447144 532.505859,428.416321 539.499207,417.469177 
	C540.152466,411.985870 540.805725,406.502533 541.709961,400.122528 
	C541.642639,395.772400 541.575317,391.422272 541.765930,386.160706 
	C541.765930,379.558319 541.765930,372.955902 541.765930,366.284790 
	C539.218384,366.284790 537.286255,366.284790 535.409302,366.284790 
	C535.085693,367.881042 534.821106,369.186310 534.482666,370.855652 
	C525.324219,359.632477 507.085907,365.005737 504.420471,377.304291 
	C503.661377,380.806793 503.558044,384.451416 503.057892,388.897369 
	C503.046814,389.727356 502.964691,390.563446 503.035797,391.386353 
	C503.682220,398.864563 506.118958,405.192017 513.771606,408.237854 
	C520.532166,410.928589 527.205261,409.263641 533.089539,403.366699 
	C533.644470,402.810608 534.388123,402.442871 535.056091,402.878265 
	C534.147644,407.601807 533.239258,412.325348 531.914795,417.630005 
M831.564941,374.569336 
	C837.095154,367.470428 843.840820,371.863739 850.169678,372.756683 
	C851.312927,366.697144 850.281677,365.249817 844.631653,365.034241 
	C841.974487,364.932800 839.300659,364.880524 836.650757,365.054443 
	C830.509277,365.457489 826.809875,368.370270 824.437988,374.517944 
	C823.702209,381.528717 825.742737,384.745361 832.561096,388.130310 
	C836.796997,390.233215 840.851990,392.700317 845.057068,395.827942 
	C844.935242,401.438751 843.471985,403.253998 838.101379,402.965668 
	C833.492493,402.718262 828.927795,401.647949 824.350281,400.942566 
	C823.701965,407.204437 823.975891,407.862183 830.168762,408.863495 
	C833.373962,409.381744 836.792053,409.437256 839.996826,408.942535 
	C849.196960,407.522308 852.364990,403.304901 851.853271,393.327850 
	C850.024475,391.278992 848.495239,388.787842 846.290283,387.294373 
	C843.600586,385.472687 840.401184,384.333618 837.316589,383.182434 
	C833.430542,381.732208 830.660278,379.617218 831.564941,374.569336 
M639.052979,389.958588 
	C639.052979,395.855621 639.052979,401.752655 639.052979,407.663422 
	C641.272827,407.663422 642.973022,407.663422 644.747253,407.663422 
	C644.747253,401.222137 644.747253,395.133423 644.920349,388.157013 
	C644.942078,386.830353 644.648743,385.400055 645.044556,384.196381 
	C646.244568,380.546936 646.888367,376.219635 649.313843,373.612213 
	C651.578735,371.177429 655.845886,370.605255 659.927917,368.927032 
	C659.914917,368.647247 659.840942,367.056488 659.726868,364.602509 
	C656.673706,365.180084 653.762451,365.162262 651.441223,366.323608 
	C648.924927,367.582581 646.958313,369.940125 645.048706,371.565979 
	C644.965088,370.371063 644.831238,368.458710 644.685059,366.369476 
	C642.750488,366.369476 641.059631,366.369476 639.153442,366.369476 
	C639.153442,374.158722 639.153442,381.594696 639.052979,389.958588 
M165.025070,221.908646 
	C165.063934,230.929260 165.102798,239.949860 165.024780,249.904938 
	C165.024780,271.771240 165.024780,293.637573 165.024780,315.598572 
	C167.982376,315.598572 170.337570,315.598572 172.858475,315.598572 
	C172.858475,293.104370 172.858475,271.037445 172.948135,248.041580 
	C172.914474,239.019821 172.880814,229.998062 172.949219,220.047470 
	C172.949219,213.453003 172.949219,206.858536 172.949219,200.297546 
	C169.969864,200.297546 167.712967,200.297546 165.152954,200.297546 
	C165.152954,207.394455 165.152954,214.185333 165.025070,221.908646 
M63.022671,220.909241 
	C63.062279,230.262985 63.101887,239.616745 63.024658,249.904953 
	C63.024658,271.771271 63.024658,293.637573 63.024658,315.598572 
	C65.982338,315.598572 68.337524,315.598572 70.858360,315.598572 
	C70.858360,293.104370 70.858360,271.037445 70.948029,248.041580 
	C70.915451,238.686630 70.882874,229.331680 70.951454,219.047913 
	C70.951454,212.785919 70.951454,206.523926 70.951454,200.297516 
	C67.973526,200.297516 65.718872,200.297516 63.149578,200.297516 
	C63.149578,207.062088 63.149578,213.519394 63.022671,220.909241 
M739.907104,372.298767 
	C737.485107,370.003235 735.304565,366.167267 732.589478,365.741699 
	C727.380005,364.925110 721.743103,365.448273 716.517395,366.537598 
	C711.878113,367.504608 711.421021,369.554382 712.902039,374.699066 
	C719.775818,370.957550 726.679077,367.831177 733.980286,374.821960 
	C735.575989,381.212250 735.278625,381.508392 728.497986,382.039612 
	C725.424377,382.280396 722.336975,382.736603 719.337830,383.443359 
	C714.944946,384.478485 710.842773,386.110046 709.072388,391.817383 
	C707.123108,398.147980 708.441895,404.569977 712.896179,406.939240 
	C721.077332,411.290741 728.427856,409.799438 734.727051,401.640320 
	C734.937500,404.323181 735.069885,406.010529 735.201050,407.683411 
	C737.303650,407.683411 739.025940,407.683411 740.830994,407.683411 
	C740.830994,402.238770 740.830994,397.128052 740.974365,391.088531 
	C740.613647,385.063354 740.252869,379.038147 739.907104,372.298767 
M422.960938,392.108002 
	C422.918610,388.410919 422.876251,384.713867 422.970184,380.086395 
	C422.921295,372.396027 422.872406,364.705688 422.959686,356.098267 
	C422.959686,352.840637 422.959686,349.583038 422.959686,346.343567 
	C420.338257,346.343567 418.431580,346.343567 416.304321,346.343567 
	C416.304321,349.797943 416.304321,352.915863 416.156830,356.944855 
	C416.156830,361.125366 416.156830,365.305847 416.156830,370.051697 
	C404.194458,361.294037 390.750122,364.119659 386.243744,375.996216 
	C385.571167,381.671326 384.898590,387.346436 384.181152,393.773010 
	C387.308899,405.127380 393.287292,410.603790 402.685883,409.178406 
	C407.375092,408.467255 411.725769,405.524078 416.009186,403.685120 
	C416.050812,404.298767 416.161194,405.926361 416.284424,407.743408 
	C418.533936,407.743408 420.579376,407.743408 422.813690,407.743408 
	C422.813690,402.618164 422.813690,397.820160 422.960938,392.108002 
M621.769714,358.366028 
	C610.033691,345.757050 594.817017,349.809570 580.344055,349.010773 
	C580.199097,350.523193 580.051208,351.328125 580.056030,352.132141 
	C580.094299,358.433105 580.161743,364.733917 580.101807,371.958405 
	C580.151611,377.315521 580.201477,382.672638 580.116394,388.953430 
	C580.116394,395.231079 580.116394,401.508728 580.116394,407.977936 
	C587.738281,407.977936 595.079773,408.724640 602.208069,407.809723 
	C614.050903,406.289703 622.833374,400.177856 626.756775,387.444275 
	C628.933899,377.336853 628.922546,367.592438 621.769714,358.366028 
M697.695984,373.360016 
	C694.178162,366.211304 688.182983,364.238129 680.700256,364.961914 
	C674.457520,365.565704 669.654114,368.094086 666.420288,374.426483 
	C663.429688,380.350189 661.861206,386.448120 664.074768,393.798035 
	C665.009521,401.804504 669.488159,407.296448 677.223022,408.596527 
	C682.240479,409.439819 687.686646,408.231720 692.866577,407.450775 
	C697.028625,406.823303 697.918823,403.992310 696.422241,400.205811 
	C681.610046,406.041443 673.890015,403.604950 670.085266,391.141754 
	C671.390686,390.431152 672.683289,389.134003 674.003601,389.105164 
	C682.533691,388.919159 691.069763,389.009949 700.903748,389.009949 
	C699.750183,383.441833 698.774658,378.732910 697.695984,373.360016 
M301.189240,386.058899 
	C301.189240,379.300354 301.189240,372.541809 301.189240,365.445404 
	C298.760315,365.828308 297.048309,366.098175 295.174042,366.393616 
	C295.174042,373.778107 295.174042,380.899170 295.061249,388.913574 
	C295.047241,390.406006 294.995819,391.899139 295.025116,393.390717 
	C295.247467,404.700073 301.280243,410.393707 312.388428,408.836670 
	C316.001434,408.330261 319.314697,405.685211 322.895721,403.955200 
	C323.055389,404.911346 323.301971,406.388123 323.519226,407.689117 
	C325.844208,407.689117 327.746216,407.689117 329.758118,407.689117 
	C329.758118,400.248688 329.758118,393.146576 329.930359,385.114441 
	C329.930359,378.851837 329.930359,372.589233 329.930359,366.368225 
	C327.341034,366.368225 325.441864,366.368225 323.414429,366.368225 
	C323.414429,373.176117 323.414429,379.624268 323.250061,386.944519 
	C323.165161,389.268555 323.304840,391.627350 322.951660,393.909882 
	C322.030975,399.859772 316.967438,403.427277 310.257141,403.080811 
	C305.265137,402.823059 302.394745,399.501038 301.802795,393.362274 
	C301.597321,391.231476 301.296234,389.109894 301.189240,386.058899 
M281.920990,363.213623 
	C281.835144,356.894928 278.190033,351.073334 272.533630,350.256104 
	C264.935272,349.158264 257.186554,349.101166 249.165985,348.575256 
	C249.165985,354.788696 249.165985,359.906677 249.059296,365.953125 
	C249.094391,373.976593 249.129486,382.000061 249.053604,390.951019 
	C249.053604,396.512970 249.053604,402.074921 249.053604,408.025726 
	C255.441284,408.025726 261.368378,408.029297 267.295471,408.022217 
	C268.287567,408.021027 269.312622,408.127716 270.266479,407.923370 
	C278.510773,406.157013 285.208771,401.268372 284.903046,389.281006 
	C283.886780,382.476471 279.595459,378.839935 272.481964,377.266937 
	C277.294495,373.610168 281.746552,370.258728 281.920990,363.213623 
M43.176983,383.754883 
	C101.591354,383.754883 160.005737,383.754883 218.697708,383.754883 
	C218.697708,380.959473 218.697708,378.737457 218.697708,376.246643 
	C216.943665,376.154755 215.481735,376.011505 214.019775,376.011200 
	C158.213547,375.999847 102.407326,375.998047 46.601097,376.007019 
	C40.997448,376.007904 40.117661,377.596008 43.176983,383.754883 
M963.500000,387.961700 
	C995.907898,387.961700 1028.315796,387.961700 1060.684570,387.961700 
	C1060.684570,384.996094 1060.684570,382.744324 1060.684570,380.433624 
	C1001.668335,380.433624 942.980713,380.433624 884.316223,380.433624 
	C884.316223,383.079376 884.316223,385.328857 884.316223,387.961639 
	C910.594116,387.961639 936.547058,387.961639 963.500000,387.961700 
M441.120728,345.040527 
	C438.420746,344.840057 435.634430,345.064301 436.124298,348.636383 
	C436.412354,350.737091 438.029602,352.655548 439.048981,354.655975 
	C440.893799,353.552490 443.923370,352.734650 444.276123,351.271484 
	C444.694061,349.537903 442.804810,347.248077 441.120728,345.040527 
M345.971527,354.254150 
	C349.176971,354.534271 351.512939,353.267822 350.843140,349.886261 
	C350.486938,348.088013 348.673828,345.801697 347.039032,345.301086 
	C345.912354,344.956085 342.790741,347.182251 342.667175,348.462677 
	C342.497070,350.224884 344.316223,352.179138 345.971527,354.254150 
z"/>
<path fill="#FED95A" opacity="1.000000" stroke="none" 
	d="
M42.769440,383.619873 
	C40.117661,377.596008 40.997448,376.007904 46.601097,376.007019 
	C102.407326,375.998047 158.213547,375.999847 214.019775,376.011200 
	C215.481735,376.011505 216.943665,376.154755 218.697708,376.246643 
	C218.697708,378.737457 218.697708,380.959473 218.697708,383.754883 
	C160.005737,383.754883 101.591354,383.754883 42.769440,383.619873 
z"/>
<path fill="#FED852" opacity="1.000000" stroke="none" 
	d="
M963.000000,387.961670 
	C936.547058,387.961639 910.594116,387.961639 884.316223,387.961639 
	C884.316223,385.328857 884.316223,383.079376 884.316223,380.433624 
	C942.980713,380.433624 1001.668335,380.433624 1060.684570,380.433624 
	C1060.684570,382.744324 1060.684570,384.996094 1060.684570,387.961700 
	C1028.315796,387.961700 995.907898,387.961700 963.000000,387.961670 
z"/>
<path fill="#FED95A" opacity="1.000000" stroke="none" 
	d="
M781.160278,386.029419 
	C781.097229,384.546448 781.041504,383.063141 780.969971,381.580597 
	C780.639771,374.736237 777.137085,370.775177 771.410706,370.764008 
	C765.858093,370.753174 761.375854,375.444427 760.987244,381.718231 
	C760.895447,383.200897 760.924011,384.691010 760.407593,386.600525 
	C758.047974,387.031067 756.177856,387.038788 754.307739,387.046478 
	C754.307739,380.264130 754.307739,373.481781 754.307739,366.354065 
	C756.398926,366.354065 758.292969,366.354065 760.579224,366.354065 
	C760.764343,367.895874 760.955017,369.483856 761.276428,372.160217 
	C764.558472,366.958405 768.615906,364.838501 774.279785,364.839325 
	C780.233215,364.840240 783.340698,368.068756 786.210876,373.073700 
	C789.963501,367.699829 794.304504,364.414062 801.075256,364.887238 
	C808.914368,365.435150 813.700500,369.654816 813.973389,377.621063 
	C814.092896,381.110138 813.989502,384.606873 813.556030,388.504822 
	C811.466919,388.615662 809.808960,388.321808 808.151062,388.027954 
	C807.815613,384.916901 807.543823,381.797333 807.129089,378.696899 
	C806.580139,374.593903 804.826965,371.437592 800.250732,370.865204 
	C795.079407,370.218384 791.086365,372.311188 789.087463,377.141663 
	C788.032288,379.691528 787.663086,382.525238 786.506348,385.620117 
	C784.405762,386.016113 782.783020,386.022766 781.160278,386.029419 
z"/>
<path fill="#FEE58F" opacity="1.000000" stroke="none" 
	d="
M172.858475,248.970505 
	C172.858475,271.037445 172.858475,293.104370 172.858475,315.598572 
	C170.337570,315.598572 167.982376,315.598572 165.024780,315.598572 
	C165.024780,293.637573 165.024780,271.771240 165.509949,249.447769 
	C168.282898,248.983902 170.570679,248.977203 172.858475,248.970505 
z"/>
<path fill="#FEE58F" opacity="1.000000" stroke="none" 
	d="
M70.858360,248.970490 
	C70.858360,271.037445 70.858360,293.104370 70.858360,315.598572 
	C68.337524,315.598572 65.982338,315.598572 63.024658,315.598572 
	C63.024658,293.637573 63.024658,271.771271 63.509815,249.447784 
	C66.282768,248.983902 68.570564,248.977188 70.858360,248.970490 
z"/>
<path fill="#FEE58F" opacity="1.000000" stroke="none" 
	d="
M185.861862,252.980133 
	C185.861862,273.769897 185.861862,294.559662 185.861862,315.686707 
	C183.278381,315.686707 181.029083,315.686707 178.029434,315.686707 
	C178.029434,295.092499 178.029434,274.503357 178.510834,253.454010 
	C181.282120,252.989243 183.571991,252.984680 185.861862,252.980133 
z"/>
<path fill="#FEE58F" opacity="1.000000" stroke="none" 
	d="
M57.858116,253.979645 
	C57.858116,274.436249 57.858116,294.892853 57.858116,315.686676 
	C55.278481,315.686676 53.029156,315.686676 50.032104,315.686676 
	C50.032104,295.425720 50.032104,275.169678 50.513699,254.453369 
	C53.282902,253.988632 55.570507,253.984146 57.858116,253.979645 
z"/>
<path fill="#FFD13C" opacity="1.000000" stroke="none" 
	d="
M626.289001,388.023346 
	C622.833374,400.177856 614.050903,406.289703 602.208069,407.809723 
	C595.079773,408.724640 587.738281,407.977936 580.116394,407.977936 
	C580.116394,401.508728 580.116394,395.231079 580.586853,388.485413 
	C582.950317,388.019318 584.843384,388.021240 586.805786,388.483276 
	C586.875183,393.186462 586.875183,397.429474 586.875183,401.556671 
	C605.035706,403.776245 612.711731,400.473358 619.683044,388.030212 
	C622.173950,388.020477 624.231445,388.021912 626.289001,388.023346 
z"/>
<path fill="#FED852" opacity="1.000000" stroke="none" 
	d="
M249.164581,390.023529 
	C249.129486,382.000061 249.094391,373.976593 249.515182,365.481079 
	C251.590454,365.013580 253.209824,365.018066 254.883316,365.470337 
	C254.957901,367.911194 254.759079,369.941101 255.084961,371.882904 
	C255.266815,372.966431 256.110107,374.490021 257.014709,374.815063 
	C265.148712,377.737396 274.067444,372.362030 275.621552,364.018951 
	C277.942993,364.019714 279.852509,364.026886 281.761993,364.034088 
	C281.746552,370.258728 277.294495,373.610168 272.481964,377.266937 
	C279.595459,378.839935 283.886780,382.476471 284.423584,389.648376 
	C282.017792,390.017914 280.091431,390.020050 278.077789,389.667847 
	C275.587250,380.952271 267.348480,379.633636 254.831070,381.786591 
	C254.831070,384.801392 254.831070,387.912201 254.472534,390.966705 
	C252.464188,390.614777 250.814392,390.319153 249.164581,390.023529 
z"/>
<path fill="#FEDA5D" opacity="1.000000" stroke="none" 
	d="
M503.153992,388.030884 
	C503.558044,384.451416 503.661377,380.806793 504.420471,377.304291 
	C507.085907,365.005737 525.324219,359.632477 534.482666,370.855652 
	C534.821106,369.186310 535.085693,367.881042 535.409302,366.284790 
	C537.286255,366.284790 539.218384,366.284790 541.765930,366.284790 
	C541.765930,372.955902 541.765930,379.558319 541.252441,386.599396 
	C538.897888,387.038818 537.056885,387.039551 535.133301,386.610474 
	C535.032288,385.019501 535.059326,383.855469 534.987671,382.697510 
	C534.618835,376.735657 530.620117,371.823914 525.461609,370.959045 
	C518.539124,369.798370 513.289124,372.706818 511.034912,379.294373 
	C510.192566,381.756042 510.023560,384.448120 509.179504,387.030457 
	C506.925690,387.360840 505.039825,387.695862 503.153992,388.030884 
z"/>
<path fill="#FFD23E" opacity="1.000000" stroke="none" 
	d="
M329.758118,386.044495 
	C329.758118,393.146576 329.758118,400.248688 329.758118,407.689117 
	C327.746216,407.689117 325.844208,407.689117 323.519226,407.689117 
	C323.301971,406.388123 323.055389,404.911346 322.895721,403.955200 
	C319.314697,405.685211 316.001434,408.330261 312.388428,408.836670 
	C301.280243,410.393707 295.247467,404.700073 295.025116,393.390717 
	C294.995819,391.899139 295.047241,390.406006 295.484161,388.409302 
	C297.617676,387.598053 299.328247,387.291077 301.038849,386.984100 
	C301.296234,389.109894 301.597321,391.231476 301.802795,393.362274 
	C302.394745,399.501038 305.265137,402.823059 310.257141,403.080811 
	C316.967438,403.427277 322.030975,399.859772 322.951660,393.909882 
	C323.304840,391.627350 323.165161,389.268555 323.723877,386.490234 
	C326.051178,386.038757 327.904663,386.041626 329.758118,386.044495 
z"/>
<path fill="#FFD13C" opacity="1.000000" stroke="none" 
	d="
M503.105957,388.464111 
	C505.039825,387.695862 506.925690,387.360840 509.263000,387.456360 
	C509.793060,389.368652 509.771942,390.863739 509.968109,392.329681 
	C510.701569,397.810303 514.616760,402.187256 519.425598,403.006256 
	C525.509766,404.042480 531.190369,401.415283 533.293884,396.050568 
	C534.399963,393.229645 534.604309,390.055145 535.215881,387.040283 
	C537.056885,387.039551 538.897888,387.038818 541.123474,387.055115 
	C541.575317,391.422272 541.642639,395.772400 541.229431,400.571625 
	C538.847351,401.343048 536.945740,401.665375 535.044189,401.987671 
	C534.388123,402.442871 533.644470,402.810608 533.089539,403.366699 
	C527.205261,409.263641 520.532166,410.928589 513.771606,408.237854 
	C506.118958,405.192017 503.682220,398.864563 503.035797,391.386353 
	C502.964691,390.563446 503.046814,389.727356 503.105957,388.464111 
z"/>
<path fill="#FEDA5D" opacity="1.000000" stroke="none" 
	d="
M422.823517,357.015320 
	C422.872406,364.705688 422.921295,372.396027 422.490967,380.545044 
	C420.084808,381.008850 418.157867,381.014008 416.128754,380.661743 
	C414.683563,375.328156 411.897247,371.823914 406.522461,370.920959 
	C400.022186,369.828979 395.432159,372.539581 391.865295,377.909546 
	C389.939514,376.994415 388.379303,376.218201 386.819122,375.441986 
	C390.750122,364.119659 404.194458,361.294037 416.156830,370.051697 
	C416.156830,365.305847 416.156830,361.125366 416.601715,356.480652 
	C418.972229,356.349365 420.897888,356.682343 422.823517,357.015320 
z"/>
<path fill="#FED64E" opacity="1.000000" stroke="none" 
	d="
M664.143005,393.017670 
	C661.861206,386.448120 663.429688,380.350189 667.111328,374.211670 
	C669.245483,374.747314 670.688721,375.497772 672.056641,376.599426 
	C671.377136,378.768036 670.773010,380.585480 670.081848,382.664520 
	C678.052063,382.664520 685.391052,382.664520 693.271484,382.664520 
	C692.785889,379.857635 692.373108,377.471680 692.205933,374.793518 
	C694.234009,374.342194 696.016602,374.183075 697.799133,374.023987 
	C698.774658,378.732910 699.750183,383.441833 700.903748,389.009949 
	C691.069763,389.009949 682.533691,388.919159 674.003601,389.105164 
	C672.683289,389.134003 671.390686,390.431152 669.666504,391.571167 
	C667.546204,392.339630 665.844604,392.678650 664.143005,393.017670 
z"/>
<path fill="#FDDB67" opacity="1.000000" stroke="none" 
	d="
M580.220215,371.034729 
	C580.161743,364.733917 580.094299,358.433105 580.056030,352.132141 
	C580.051208,351.328125 580.199097,350.523193 580.344055,349.010773 
	C594.817017,349.809570 610.033691,345.757050 621.459839,358.681824 
	C618.846924,359.451477 616.543884,359.905396 613.953552,360.224609 
	C605.604126,354.720581 596.681458,354.475464 586.769836,355.389404 
	C586.769836,360.803192 586.769836,365.917938 586.358582,371.023682 
	C584.038330,371.021393 582.129272,371.028076 580.220215,371.034729 
z"/>
<path fill="#FFD13C" opacity="1.000000" stroke="none" 
	d="
M422.813690,393.022156 
	C422.813690,397.820160 422.813690,402.618164 422.813690,407.743408 
	C420.579376,407.743408 418.533936,407.743408 416.284424,407.743408 
	C416.161194,405.926361 416.050812,404.298767 416.009186,403.685120 
	C411.725769,405.524078 407.375092,408.467255 402.685883,409.178406 
	C393.287292,410.603790 387.308899,405.127380 384.566437,393.336578 
	C386.912415,392.606110 388.873077,392.312073 390.903656,392.381775 
	C393.960602,400.727631 397.343597,403.293182 404.569427,403.056305 
	C410.190277,402.872040 413.958344,399.291321 416.553162,392.067322 
	C418.886230,392.417511 420.849976,392.719849 422.813690,393.022156 
z"/>
<path fill="#FFD13C" opacity="1.000000" stroke="none" 
	d="
M278.165100,390.022186 
	C280.091431,390.020050 282.017792,390.017914 284.353821,390.023315 
	C285.208771,401.268372 278.510773,406.157013 270.266479,407.923370 
	C269.312622,408.127716 268.287567,408.021027 267.295471,408.022217 
	C261.368378,408.029297 255.441284,408.025726 249.053604,408.025726 
	C249.053604,402.074921 249.053604,396.512970 249.109100,390.487274 
	C250.814392,390.319153 252.464188,390.614777 254.527924,391.424774 
	C254.941849,395.177002 254.941849,398.414856 254.941849,402.078339 
	C258.876587,402.078339 262.135162,402.090485 265.393585,402.076019 
	C273.916779,402.038269 277.650452,398.509003 278.165100,390.022186 
z"/>
<path fill="#FFD13C" opacity="1.000000" stroke="none" 
	d="
M740.830994,392.017334 
	C740.830994,397.128052 740.830994,402.238770 740.830994,407.683411 
	C739.025940,407.683411 737.303650,407.683411 735.201050,407.683411 
	C735.069885,406.010529 734.937500,404.323181 734.727051,401.640320 
	C728.427856,409.799438 721.077332,411.290741 712.896179,406.939240 
	C708.441895,404.569977 707.123108,398.147980 709.595947,391.420349 
	C711.784790,391.420837 713.450134,391.818420 715.076294,392.628967 
	C713.592896,402.190887 719.356445,404.271057 726.361877,402.794434 
	C732.382019,401.525482 734.148926,396.389191 735.535400,391.012970 
	C737.545898,391.344360 739.188477,391.680847 740.830994,392.017334 
z"/>
<path fill="#FED95A" opacity="1.000000" stroke="none" 
	d="
M178.163788,205.977753 
	C178.163788,203.009445 178.163788,200.041138 178.163788,197.268723 
	C168.228485,192.308884 162.098877,183.508453 154.596924,176.225967 
	C156.921921,174.873016 158.991867,173.870468 161.061798,172.867905 
	C169.129562,180.864609 177.401886,188.673065 185.086212,197.022659 
	C186.558395,198.622314 185.716400,202.351746 185.464142,205.545013 
	C182.712097,205.986847 180.437943,205.982300 178.163788,205.977753 
z"/>
<path fill="#FDDB67" opacity="1.000000" stroke="none" 
	d="
M281.841492,363.623840 
	C279.852509,364.026886 277.942993,364.019714 275.541351,363.646790 
	C273.203461,356.244141 267.852570,353.464874 258.023102,355.092773 
	C252.129196,356.068878 256.250977,361.120270 254.982346,364.042633 
	C254.854935,364.336121 254.876694,364.694397 254.829193,365.022583 
	C253.209824,365.018066 251.590454,365.013580 249.568527,365.016846 
	C249.165985,359.906677 249.165985,354.788696 249.165985,348.575256 
	C257.186554,349.101166 264.935272,349.158264 272.533630,350.256104 
	C278.190033,351.073334 281.835144,356.894928 281.841492,363.623840 
z"/>
<path fill="#FED95A" opacity="1.000000" stroke="none" 
	d="
M459.149048,380.012451 
	C459.149048,375.559906 459.149048,371.107330 459.149048,366.336609 
	C461.125854,366.336609 462.835663,366.336609 464.724884,366.336609 
	C464.888031,368.134216 465.032990,369.731018 465.289398,372.555939 
	C470.760498,364.924622 477.661652,363.162018 485.324341,365.949615 
	C490.198517,367.722809 492.438660,372.103088 492.521973,377.622192 
	C490.343567,378.353119 488.612030,378.702942 486.880493,379.052765 
	C485.055725,374.219666 482.670258,370.193481 476.483276,370.585693 
	C471.050049,370.930145 467.880127,373.443390 465.002197,379.812134 
	C462.584625,380.016479 460.866821,380.014465 459.149048,380.012451 
z"/>
<path fill="#FED852" opacity="1.000000" stroke="none" 
	d="
M83.932510,173.978394 
	C76.841408,180.896851 69.750313,187.815323 61.938026,194.862000 
	C58.599586,194.594498 55.982330,194.198792 53.365074,193.803085 
	C60.491283,186.850967 67.617493,179.898849 75.507080,172.967560 
	C78.824478,173.318390 81.378487,173.648392 83.932510,173.978394 
z"/>
<path fill="#FFD038" opacity="1.000000" stroke="none" 
	d="
M664.108887,393.407837 
	C665.844604,392.678650 667.546204,392.339630 669.629517,391.999359 
	C673.890015,403.604950 681.610046,406.041443 696.422241,400.205811 
	C697.918823,403.992310 697.028625,406.823303 692.866577,407.450775 
	C687.686646,408.231720 682.240479,409.439819 677.223022,408.596527 
	C669.488159,407.296448 665.009521,401.804504 664.108887,393.407837 
z"/>
<path fill="#FED64E" opacity="1.000000" stroke="none" 
	d="
M715.115417,392.215973 
	C713.450134,391.818420 711.784790,391.420837 709.729492,391.033508 
	C710.842773,386.110046 714.944946,384.478485 719.337830,383.443359 
	C722.336975,382.736603 725.424377,382.280396 728.497986,382.039612 
	C735.278625,381.508392 735.575989,381.212250 734.306030,374.382263 
	C736.385193,373.632690 738.138672,373.322815 739.892090,373.012970 
	C740.252869,379.038147 740.613647,385.063354 740.902710,391.552917 
	C739.188477,391.680847 737.545898,391.344360 735.464966,390.588348 
	C734.359253,388.788208 733.491516,386.147064 733.054626,386.216522 
	C726.769043,387.215820 719.768005,386.341766 715.115417,392.215973 
z"/>
<path fill="#FBDE7A" opacity="1.000000" stroke="none" 
	d="
M70.903198,248.506042 
	C68.570564,248.977188 66.282768,248.983902 63.568237,248.980545 
	C63.101887,239.616745 63.062279,230.262985 63.512444,220.451050 
	C66.284912,219.987488 68.567604,219.982117 70.850296,219.976746 
	C70.882874,229.331680 70.915451,238.686630 70.903198,248.506042 
z"/>
<path fill="#FED95A" opacity="1.000000" stroke="none" 
	d="
M614.240784,360.359314 
	C616.543884,359.905396 618.846924,359.451477 621.593262,358.992981 
	C628.922546,367.592438 628.933899,377.336853 626.522888,387.733826 
	C624.231445,388.021912 622.173950,388.020477 619.660645,387.627747 
	C621.463501,377.554626 621.269348,368.325836 614.240784,360.359314 
z"/>
<path fill="#FBDE7A" opacity="1.000000" stroke="none" 
	d="
M172.903305,248.506042 
	C170.570679,248.977203 168.282898,248.983902 165.568390,248.980530 
	C165.102798,239.949860 165.063934,230.929260 165.514954,221.450394 
	C168.285599,220.986862 170.566391,220.981583 172.847168,220.976303 
	C172.880814,229.998062 172.914474,239.019821 172.903305,248.506042 
z"/>
<path fill="#FFD038" opacity="1.000000" stroke="none" 
	d="
M851.781616,394.030945 
	C852.364990,403.304901 849.196960,407.522308 839.996826,408.942535 
	C836.792053,409.437256 833.373962,409.381744 830.168762,408.863495 
	C823.975891,407.862183 823.701965,407.204437 824.350281,400.942566 
	C828.927795,401.647949 833.492493,402.718262 838.101379,402.965668 
	C843.471985,403.253998 844.935242,401.438751 845.375305,395.262939 
	C847.722900,394.475616 849.752258,394.253296 851.781616,394.030945 
z"/>
<path fill="#FED95A" opacity="1.000000" stroke="none" 
	d="
M639.153442,389.030670 
	C639.153442,381.594696 639.153442,374.158722 639.153442,366.369476 
	C641.059631,366.369476 642.750488,366.369476 644.685059,366.369476 
	C644.831238,368.458710 644.965088,370.371063 645.048706,371.565979 
	C646.958313,369.940125 648.924927,367.582581 651.441223,366.323608 
	C653.762451,365.162262 656.673706,365.180084 659.726868,364.602509 
	C659.840942,367.056488 659.914917,368.647247 659.927917,368.927032 
	C655.845886,370.605255 651.578735,371.177429 649.313843,373.612213 
	C646.888367,376.219635 646.244568,380.546936 645.044556,384.196381 
	C644.648743,385.400055 644.942078,386.830353 644.435974,388.589294 
	C642.352234,389.024597 640.752808,389.027649 639.153442,389.030670 
z"/>
<path fill="#FED64E" opacity="1.000000" stroke="none" 
	d="
M851.817444,393.679382 
	C849.752258,394.253296 847.722900,394.475616 845.340881,394.850952 
	C840.851990,392.700317 836.796997,390.233215 832.561096,388.130310 
	C825.742737,384.745361 823.702209,381.528717 825.108398,374.258484 
	C827.517761,374.332275 829.256775,374.665497 830.995728,374.998688 
	C830.660278,379.617218 833.430542,381.732208 837.316589,383.182434 
	C840.401184,384.333618 843.600586,385.472687 846.290283,387.294373 
	C848.495239,388.787842 850.024475,391.278992 851.817444,393.679382 
z"/>
<path fill="#FFC813" opacity="1.000000" stroke="none" 
	d="
M538.939148,417.990265 
	C532.505859,428.416321 519.279968,432.447144 508.480103,426.836273 
	C506.834686,425.981445 506.319427,422.951233 505.825165,420.293732 
	C515.316162,423.003906 524.237427,426.033386 532.499451,417.330383 
	C535.035767,417.350586 536.987488,417.670410 538.939148,417.990265 
z"/>
<path fill="#FCDB6C" opacity="1.000000" stroke="none" 
	d="
M178.095337,206.443970 
	C180.437943,205.982300 182.712097,205.986847 185.411194,205.984528 
	C185.870789,214.332443 185.905472,222.687210 185.467377,231.515961 
	C182.714432,231.983704 180.434280,231.977432 178.154114,231.971161 
	C178.111710,223.617493 178.069290,215.263840 178.095337,206.443970 
z"/>
<path fill="#FFC813" opacity="1.000000" stroke="none" 
	d="
M123.730476,146.635117 
	C121.904648,145.082703 120.078819,143.530289 117.760437,141.559097 
	C116.367897,142.891632 114.940765,144.257248 112.832916,145.747726 
	C110.071548,144.853302 107.990898,143.834015 105.910263,142.814728 
	C109.836250,138.820267 113.762245,134.825790 118.956894,129.540527 
	C122.761086,134.029968 126.241562,138.137360 129.815826,142.921875 
	C127.849907,144.611008 125.790192,145.623062 123.730476,146.635117 
z"/>
<path fill="#FFCD2D" opacity="1.000000" stroke="none" 
	d="
M123.874359,146.909180 
	C125.790192,145.623062 127.849907,144.611008 129.999786,143.206955 
	C135.935593,148.350113 141.781204,153.885300 147.373657,159.761765 
	C144.961975,161.005737 142.803452,161.908417 140.644928,162.811096 
	C135.102692,157.601822 129.560455,152.392532 123.874359,146.909180 
z"/>
<path fill="#FEDA5D" opacity="1.000000" stroke="none" 
	d="
M697.747559,373.692017 
	C696.016602,374.183075 694.234009,374.342194 691.893127,374.629089 
	C684.893005,368.676758 679.482361,369.096954 672.131897,376.248230 
	C670.688721,375.497772 669.245483,374.747314 667.390869,373.994171 
	C669.654114,368.094086 674.457520,365.565704 680.700256,364.961914 
	C688.182983,364.238129 694.178162,366.211304 697.747559,373.692017 
z"/>
<path fill="#FDDB67" opacity="1.000000" stroke="none" 
	d="
M53.054371,193.931946 
	C55.982330,194.198792 58.599586,194.594498 61.638432,195.009247 
	C58.021175,197.112045 57.624310,200.626282 57.949181,204.673355 
	C58.225231,208.112228 57.971996,211.593567 57.473198,215.525604 
	C54.713985,215.991837 52.434528,215.988571 50.155067,215.985306 
	C50.079849,210.254745 49.797615,204.514618 50.061394,198.799698 
	C50.136051,197.182236 51.805588,195.638397 53.054371,193.931946 
z"/>
<path fill="#FFCD2D" opacity="1.000000" stroke="none" 
	d="
M105.592850,142.930222 
	C107.990898,143.834015 110.071548,144.853302 112.530479,145.916656 
	C107.852760,150.901291 102.796761,155.841827 97.052048,160.864746 
	C94.256813,160.000351 92.150291,159.053574 90.043770,158.106812 
	C95.120995,153.086426 100.198212,148.066071 105.592850,142.930222 
z"/>
<path fill="#FEDA5D" opacity="1.000000" stroke="none" 
	d="
M739.899597,372.655884 
	C738.138672,373.322815 736.385193,373.632690 734.245483,373.987854 
	C726.679077,367.831177 719.775818,370.957550 712.902039,374.699066 
	C711.421021,369.554382 711.878113,367.504608 716.517395,366.537598 
	C721.743103,365.448273 727.380005,364.925110 732.589478,365.741699 
	C735.304565,366.167267 737.485107,370.003235 739.899597,372.655884 
z"/>
<path fill="#FCE081" opacity="1.000000" stroke="none" 
	d="
M178.088440,232.438293 
	C180.434280,231.977432 182.714432,231.983704 185.420166,231.980530 
	C185.882614,238.664154 185.919495,245.357224 185.909119,252.515213 
	C183.571991,252.984680 181.282120,252.989243 178.565140,252.986969 
	C178.099594,246.288559 178.061172,239.597000 178.088440,232.438293 
z"/>
<path fill="#FDDB67" opacity="1.000000" stroke="none" 
	d="
M172.898193,220.511887 
	C170.566391,220.981583 168.285599,220.986862 165.578888,220.984161 
	C165.152954,214.185333 165.152954,207.394455 165.152954,200.297546 
	C167.712967,200.297546 169.969864,200.297546 172.949219,200.297546 
	C172.949219,206.858536 172.949219,213.453003 172.898193,220.511887 
z"/>
<path fill="#FFD13C" opacity="1.000000" stroke="none" 
	d="
M349.806824,388.042908 
	C349.858795,390.534698 350.077881,393.036682 349.926422,395.516022 
	C349.650360,400.034760 351.237152,402.625397 356.091095,402.113800 
	C358.508759,407.637726 358.180817,408.103485 352.554535,408.045044 
	C347.926727,407.996948 344.839783,405.823639 344.101929,401.324432 
	C343.437134,397.270752 343.509491,393.096191 343.730225,388.507141 
	C346.071442,388.040527 347.939148,388.041718 349.806824,388.042908 
z"/>
<path fill="#FEDA5D" opacity="1.000000" stroke="none" 
	d="
M831.280334,374.783997 
	C829.256775,374.665497 827.517761,374.332275 825.387207,373.998657 
	C826.809875,368.370270 830.509277,365.457489 836.650757,365.054443 
	C839.300659,364.880524 841.974487,364.932800 844.631653,365.034241 
	C850.281677,365.249817 851.312927,366.697144 850.169678,372.756683 
	C843.840820,371.863739 837.095154,367.470428 831.280334,374.783997 
z"/>
<path fill="#FDDB67" opacity="1.000000" stroke="none" 
	d="
M70.900879,219.512329 
	C68.567604,219.982117 66.284912,219.987488 63.575897,219.984787 
	C63.149578,213.519394 63.149578,207.062088 63.149578,200.297516 
	C65.718872,200.297516 67.973526,200.297516 70.951454,200.297516 
	C70.951454,206.523926 70.951454,212.785919 70.900879,219.512329 
z"/>
<path fill="#FBDC72" opacity="1.000000" stroke="none" 
	d="
M50.091629,216.451324 
	C52.434528,215.988571 54.713985,215.991837 57.419243,215.990204 
	C57.879032,222.340134 57.913017,228.694977 57.472118,235.521423 
	C54.715164,235.988419 52.433102,235.983810 50.151039,235.979187 
	C50.110088,229.625229 50.069138,223.271286 50.091629,216.451324 
z"/>
<path fill="#FEDA5D" opacity="1.000000" stroke="none" 
	d="
M349.887512,387.577057 
	C347.939148,388.041718 346.071442,388.040527 343.810181,388.061768 
	C343.416595,380.960693 343.416595,373.837128 343.416595,366.357727 
	C345.443329,366.357727 347.348877,366.357727 349.968170,366.357727 
	C349.968170,373.239105 349.968170,380.175140 349.887512,387.577057 
z"/>
<path fill="#FFD13C" opacity="1.000000" stroke="none" 
	d="
M370.816101,388.022095 
	C370.871155,389.671661 370.962982,391.320984 370.975006,392.970856 
	C371.033600,401.010345 371.248047,401.302734 378.628052,402.952148 
	C379.692627,406.517395 378.553772,408.160461 374.629059,408.068420 
	C369.064667,407.937927 365.494324,404.570801 365.071106,398.353760 
	C364.858459,395.229889 365.054962,392.078186 365.527649,388.475342 
	C367.597961,388.015137 369.207031,388.018616 370.816101,388.022095 
z"/>
<path fill="#FFD23E" opacity="1.000000" stroke="none" 
	d="
M89.735085,158.224701 
	C92.150291,159.053574 94.256813,160.000351 96.752365,161.005173 
	C92.944313,165.271729 88.747223,169.480255 84.241318,173.833588 
	C81.378487,173.648392 78.824478,173.318390 75.827118,172.932800 
	C80.064644,168.032333 84.745522,163.187454 89.735085,158.224701 
z"/>
<path fill="#FFD23E" opacity="1.000000" stroke="none" 
	d="
M140.787964,163.075775 
	C142.803452,161.908417 144.961975,161.005737 147.510620,160.061432 
	C152.179749,164.109253 156.458740,168.198700 160.899780,172.578033 
	C158.991867,173.870468 156.921921,174.873016 154.476593,175.919189 
	C149.711121,171.755356 145.321060,167.547913 140.787964,163.075775 
z"/>
<path fill="#FFD23E" opacity="1.000000" stroke="none" 
	d="
M754.237671,387.506927 
	C756.177856,387.038788 758.047974,387.031067 760.318237,387.033875 
	C760.718323,393.807861 760.718323,400.571350 760.718323,407.759949 
	C759.048462,407.843201 757.464844,407.922180 755.344666,407.762634 
	C754.649597,407.290100 754.441650,407.114655 754.184326,406.997711 
	C754.178772,400.654266 754.173157,394.310822 754.237671,387.506927 
z"/>
<path fill="#FFD13C" opacity="1.000000" stroke="none" 
	d="
M442.839294,392.019440 
	C442.889923,393.007538 442.953278,393.995209 442.989044,394.983856 
	C443.201141,400.845154 443.871735,401.524445 450.335083,402.398560 
	C451.493805,408.007690 449.865692,409.633270 444.331512,408.392883 
	C439.365082,407.279724 437.058899,404.458710 437.004486,399.366699 
	C436.981567,397.220642 437.031525,395.073792 437.510223,392.466766 
	C439.594482,392.010651 441.216888,392.015045 442.839294,392.019440 
z"/>
<path fill="#FDDB67" opacity="1.000000" stroke="none" 
	d="
M365.162842,370.027771 
	C365.162842,362.234283 365.162842,354.440796 365.162842,346.300140 
	C367.044769,346.195160 368.635651,346.106415 370.980530,345.975616 
	C370.980530,353.891144 370.980530,361.493652 370.505371,369.552460 
	C368.407745,370.015076 366.785278,370.021423 365.162842,370.027771 
z"/>
<path fill="#FCE081" opacity="1.000000" stroke="none" 
	d="
M50.088791,236.445465 
	C52.433102,235.983810 54.715164,235.988419 57.423164,235.986115 
	C57.883995,241.669846 57.918896,247.360519 57.905952,253.515411 
	C55.570507,253.984146 53.282902,253.988632 50.568672,253.986389 
	C50.103554,248.290344 50.065048,242.601044 50.088791,236.445465 
z"/>
<path fill="#FED95A" opacity="1.000000" stroke="none" 
	d="
M329.844238,385.579468 
	C327.904663,386.041626 326.051178,386.038757 323.806091,386.054169 
	C323.414429,379.624268 323.414429,373.176117 323.414429,366.368225 
	C325.441864,366.368225 327.341034,366.368225 329.930359,366.368225 
	C329.930359,372.589233 329.930359,378.851837 329.844238,385.579468 
z"/>
<path fill="#FFD23E" opacity="1.000000" stroke="none" 
	d="
M781.108521,386.493439 
	C782.783020,386.022766 784.405762,386.016113 786.433594,386.019562 
	C786.838684,393.157593 786.838684,400.285553 786.838684,407.720947 
	C785.510010,407.720947 783.574585,407.720947 781.056824,407.720947 
	C781.056824,400.846252 781.056824,393.901855 781.108521,386.493439 
z"/>
<path fill="#FED852" opacity="1.000000" stroke="none" 
	d="
M301.114044,386.521484 
	C299.328247,387.291077 297.617676,387.598053 295.540558,387.962646 
	C295.174042,380.899170 295.174042,373.778107 295.174042,366.393616 
	C297.048309,366.098175 298.760315,365.828308 301.189240,365.445404 
	C301.189240,372.541809 301.189240,379.300354 301.114044,386.521484 
z"/>
<path fill="#FED64E" opacity="1.000000" stroke="none" 
	d="
M580.161011,371.496582 
	C582.129272,371.028076 584.038330,371.021393 586.419189,371.485596 
	C586.839539,377.312042 586.787964,382.667603 586.736389,388.023163 
	C584.843384,388.021240 582.950317,388.019318 580.654297,388.023560 
	C580.201477,382.672638 580.151611,377.315521 580.161011,371.496582 
z"/>
<path fill="#FFD23E" opacity="1.000000" stroke="none" 
	d="
M808.100159,388.492065 
	C809.808960,388.321808 811.466919,388.615662 813.483032,388.967743 
	C813.841187,395.123749 813.841187,401.221527 813.841187,407.670074 
	C811.998840,407.670074 810.295044,407.670074 808.049255,407.670074 
	C808.049255,401.429352 808.049255,395.192780 808.100159,388.492065 
z"/>
<path fill="#FFD13C" opacity="1.000000" stroke="none" 
	d="
M639.103210,389.494629 
	C640.752808,389.027649 642.352234,389.024597 644.349426,389.033142 
	C644.747253,395.133423 644.747253,401.222137 644.747253,407.663422 
	C642.973022,407.663422 641.272827,407.663422 639.052979,407.663422 
	C639.052979,401.752655 639.052979,395.855621 639.103210,389.494629 
z"/>
<path fill="#FFCD2D" opacity="1.000000" stroke="none" 
	d="
M539.219177,417.729736 
	C536.987488,417.670410 535.035767,417.350586 532.707520,417.039795 
	C533.239258,412.325348 534.147644,407.601807 535.050171,402.432983 
	C536.945740,401.665375 538.847351,401.343048 541.104004,401.019958 
	C540.805725,406.502533 540.152466,411.985870 539.219177,417.729736 
z"/>
<path fill="#FED64E" opacity="1.000000" stroke="none" 
	d="
M365.110657,370.491180 
	C366.785278,370.021423 368.407745,370.015076 370.435059,370.018127 
	C370.881134,375.715973 370.922302,381.404388 370.889832,387.557465 
	C369.207031,388.018616 367.597961,388.015137 365.587128,388.016937 
	C365.143097,382.333038 365.100769,376.643829 365.110657,370.491180 
z"/>
<path fill="#FED64E" opacity="1.000000" stroke="none" 
	d="
M390.833771,392.018005 
	C388.873077,392.312073 386.912415,392.606110 384.588867,392.960846 
	C384.898590,387.346436 385.571167,381.671326 386.531433,375.719116 
	C388.379303,376.218201 389.939514,376.994415 391.781311,378.322083 
	C391.653168,383.255066 391.243469,387.636536 390.833771,392.018005 
z"/>
<path fill="#FED852" opacity="1.000000" stroke="none" 
	d="
M437.158508,382.004333 
	C437.158508,376.877350 437.158508,371.750366 437.158508,366.292419 
	C439.046356,366.190430 440.640228,366.104340 442.968811,365.978577 
	C442.968811,371.201538 442.968811,376.139069 442.500153,381.538940 
	C440.407166,382.002319 438.782837,382.003326 437.158508,382.004333 
z"/>
<path fill="#FED64E" opacity="1.000000" stroke="none" 
	d="
M486.918060,379.513916 
	C488.612030,378.702942 490.343567,378.353119 492.460754,378.007996 
	C492.892426,383.040161 492.938446,388.067657 492.510864,393.550659 
	C490.429413,394.013153 488.821564,394.020081 487.213745,394.027039 
	C487.127716,389.343048 487.041687,384.659058 486.918060,379.513916 
z"/>
<path fill="#FED64E" opacity="1.000000" stroke="none" 
	d="
M459.092712,380.473602 
	C460.866821,380.014465 462.584625,380.016479 464.735779,380.035522 
	C465.100769,384.734161 465.032379,389.415741 464.532562,394.503235 
	C462.454041,394.613342 460.806946,394.317535 459.159851,394.021729 
	C459.118713,389.659393 459.077576,385.297089 459.092712,380.473602 
z"/>
<path fill="#FFD038" opacity="1.000000" stroke="none" 
	d="
M487.152100,394.487610 
	C488.821564,394.020081 490.429413,394.013153 492.439270,394.013977 
	C492.841309,398.454071 492.841309,402.886383 492.841309,407.663361 
	C491.038727,407.663361 489.334747,407.663361 487.090485,407.663361 
	C487.090485,403.425323 487.090485,399.186737 487.152100,394.487610 
z"/>
<path fill="#FFD038" opacity="1.000000" stroke="none" 
	d="
M459.104187,394.483704 
	C460.806946,394.317535 462.454041,394.613342 464.457092,394.965027 
	C464.813080,399.130157 464.813080,403.239441 464.813080,407.677551 
	C462.941803,407.677551 461.224304,407.677551 459.048492,407.677551 
	C459.048492,403.430542 459.048492,399.188110 459.104187,394.483704 
z"/>
<path fill="#FED64E" opacity="1.000000" stroke="none" 
	d="
M422.887329,392.565063 
	C420.849976,392.719849 418.886230,392.417511 416.495667,391.611145 
	C416.122864,387.744476 416.176910,384.381836 416.230957,381.019165 
	C418.157867,381.014008 420.084808,381.008850 422.422821,381.010254 
	C422.876251,384.713867 422.918610,388.410919 422.887329,392.565063 
z"/>
<path fill="#FBDC72" opacity="1.000000" stroke="none" 
	d="
M441.518127,345.119934 
	C442.804810,347.248077 444.694061,349.537903 444.276123,351.271484 
	C443.923370,352.734650 440.893799,353.552490 439.049011,354.656006 
	C438.029602,352.655548 436.412354,350.737091 436.124298,348.636383 
	C435.634430,345.064301 438.420746,344.840057 441.518127,345.119934 
z"/>
<path fill="#FCDB6C" opacity="1.000000" stroke="none" 
	d="
M422.891602,356.556793 
	C420.897888,356.682343 418.972229,356.349365 416.675476,356.025085 
	C416.304321,352.915863 416.304321,349.797943 416.304321,346.343567 
	C418.431580,346.343567 420.338257,346.343567 422.959686,346.343567 
	C422.959686,349.583038 422.959686,352.840637 422.891602,356.556793 
z"/>
<path fill="#FBDC72" opacity="1.000000" stroke="none" 
	d="
M345.627350,354.152649 
	C344.316223,352.179138 342.497070,350.224884 342.667175,348.462677 
	C342.790741,347.182251 345.912354,344.956085 347.039032,345.301086 
	C348.673828,345.801697 350.486938,348.088013 350.843140,349.886261 
	C351.512939,353.267822 349.176971,354.534271 345.627350,354.152649 
z"/>
<path fill="#FED64E" opacity="1.000000" stroke="none" 
	d="
M437.097351,382.455322 
	C438.782837,382.003326 440.407166,382.002319 442.437042,382.002808 
	C442.888245,385.042023 442.933899,388.079681 442.909424,391.568420 
	C441.216888,392.015045 439.594482,392.010651 437.566956,392.012878 
	C437.119965,388.981812 437.078094,385.944092 437.097351,382.455322 
z"/>
<path fill="#FED95A" opacity="1.000000" stroke="none" 
	d="
M754.167847,407.248962 
	C754.441650,407.114655 754.649597,407.290100 754.905701,407.705658 
	C754.719299,407.758240 754.435303,407.629242 754.167847,407.248962 
z"/>
<path fill="#FFFFFF" opacity="1.000000" stroke="none" 
	d="
M586.805786,388.483276 
	C586.787964,382.667603 586.839539,377.312042 586.830444,371.494568 
	C586.769836,365.917938 586.769836,360.803192 586.769836,355.389404 
	C596.681458,354.475464 605.604126,354.720581 613.953552,360.224579 
	C621.269348,368.325836 621.463501,377.554626 619.227295,387.638916 
	C612.711731,400.473358 605.035706,403.776245 586.875183,401.556671 
	C586.875183,397.429474 586.875183,393.186462 586.805786,388.483276 
z"/>
<path fill="#FFFFFE" opacity="1.000000" stroke="none" 
	d="
M278.077789,389.667847 
	C277.650452,398.509003 273.916779,402.038269 265.393585,402.076019 
	C262.135162,402.090485 258.876587,402.078339 254.941849,402.078339 
	C254.941849,398.414856 254.941849,395.177002 254.886459,391.481079 
	C254.831070,387.912201 254.831070,384.801392 254.831070,381.786591 
	C267.348480,379.633636 275.587250,380.952271 278.077789,389.667847 
z"/>
<path fill="#FFFFFE" opacity="1.000000" stroke="none" 
	d="
M254.883301,365.470337 
	C254.876694,364.694397 254.854935,364.336121 254.982346,364.042633 
	C256.250977,361.120270 252.129196,356.068878 258.023102,355.092773 
	C267.852570,353.464874 273.203461,356.244141 275.129395,363.653198 
	C274.067444,372.362030 265.148712,377.737396 257.014709,374.815063 
	C256.110107,374.490021 255.266815,372.966431 255.084961,371.882904 
	C254.759079,369.941101 254.957901,367.911194 254.883301,365.470337 
z"/>
<path fill="#FFFFFE" opacity="1.000000" stroke="none" 
	d="
M535.133301,386.610504 
	C534.604309,390.055145 534.399963,393.229645 533.293884,396.050568 
	C531.190369,401.415283 525.509766,404.042480 519.425598,403.006256 
	C514.616760,402.187256 510.701569,397.810303 509.968109,392.329681 
	C509.771942,390.863739 509.793060,389.368652 509.630981,387.461060 
	C510.023560,384.448120 510.192566,381.756042 511.034912,379.294373 
	C513.289124,372.706818 518.539124,369.798370 525.461609,370.959045 
	C530.620117,371.823914 534.618835,376.735657 534.987671,382.697510 
	C535.059326,383.855469 535.032288,385.019501 535.133301,386.610504 
z"/>
<path fill="#FFFFFE" opacity="1.000000" stroke="none" 
	d="
M416.128784,380.661743 
	C416.176910,384.381836 416.122864,387.744476 416.126282,391.563293 
	C413.958344,399.291321 410.190277,402.872040 404.569427,403.056305 
	C397.343597,403.293182 393.960602,400.727631 390.903656,392.381775 
	C391.243469,387.636536 391.653168,383.255066 392.146912,378.461029 
	C395.432159,372.539581 400.022186,369.828979 406.522461,370.920959 
	C411.897247,371.823914 414.683563,375.328156 416.128784,380.661743 
z"/>
<path fill="#FFFFFE" opacity="1.000000" stroke="none" 
	d="
M672.056641,376.599426 
	C679.482361,369.096954 684.893005,368.676758 691.647583,374.921326 
	C692.373108,377.471680 692.785889,379.857635 693.271484,382.664520 
	C685.391052,382.664520 678.052063,382.664520 670.081848,382.664520 
	C670.773010,380.585480 671.377136,378.768036 672.056641,376.599426 
z"/>
<path fill="#FFFFFE" opacity="1.000000" stroke="none" 
	d="
M715.076294,392.628967 
	C719.768005,386.341766 726.769043,387.215820 733.054626,386.216522 
	C733.491516,386.147064 734.359253,388.788208 735.096985,390.593445 
	C734.148926,396.389191 732.382019,401.525482 726.361877,402.794434 
	C719.356445,404.271057 713.592896,402.190887 715.076294,392.628967 
z"/>
</svg>